<svg width="72" height="72" viewBox="0 0 72 72" fill="none" xmlns="http://www.w3.org/2000/svg">
<path d="M64.9618 16.8144C64.8996 16.6144 64.1217 15.8454 63.9216 15.7832C63.6371 15.6987 63.2459 15.7165 62.8681 15.7343C62.6369 15.7432 62.4191 15.7521 62.2279 15.7432C61.2277 15.6809 60.1875 15.712 59.1784 15.7432C58.2182 15.7743 57.2225 15.8054 56.2356 15.7565C56.0533 15.7476 55.8889 15.6987 55.711 15.6454C55.4799 15.5743 55.2398 15.5076 54.9509 15.5165C54.7508 15.5254 54.5597 15.5876 54.373 15.6454C54.1329 15.7209 53.9018 15.7921 53.6573 15.7609L51.3679 8.18658C51.0879 7.65318 50.4877 7.39537 49.9587 7.16867C49.8565 7.12422 49.7587 7.08421 49.6653 7.03976L49.5809 6.99976L49.5275 7.07532C48.0206 9.24006 46.9492 11.6271 46.1002 13.6807C45.989 13.9474 45.9046 14.2541 45.8112 14.5741C45.7134 14.9253 45.6067 15.2898 45.4689 15.6098C44.9177 16.8767 44.6732 17.2856 43.2018 17.4545C42.1882 17.5701 41.0902 17.619 40.0322 17.6634C38.9565 17.7123 37.8496 17.7612 36.8005 17.8812C36.6004 17.9035 36.4093 17.9524 36.227 18.0012C35.8981 18.0857 35.5869 18.1702 35.2402 18.1035L35.0979 18.0768L35.1068 18.2235C35.3113 20.9972 37.534 24.1843 39.521 25.7756C39.7655 25.9712 40.0411 26.1268 40.3079 26.2779C40.8902 26.6069 41.437 26.9225 41.6815 27.5803C42.0282 28.5271 41.9882 29.794 41.9437 31.0163C41.926 31.5898 41.9037 32.1321 41.926 32.6255C41.9349 32.8255 41.9927 33.0077 42.046 33.1811C42.0993 33.3456 42.1482 33.5056 42.1571 33.6745C42.1749 33.9545 42.1616 34.2701 42.1527 34.6079C42.1082 35.8526 42.0549 37.4039 43.5041 37.8573C43.5441 37.8706 43.6019 37.8751 43.673 37.8751C43.9931 37.8751 44.5443 37.7595 44.6421 37.6839C44.7132 37.6306 44.7532 37.4928 44.8199 37.2216C44.8644 37.0527 44.9133 36.8571 44.9622 36.7638C45.3222 36.1059 45.7579 35.6881 46.2202 35.2391C46.4913 34.9813 46.7714 34.7102 47.0381 34.3901C47.6027 33.71 48.1095 32.9188 48.6029 32.1543C49.0563 31.452 49.5231 30.7274 50.0165 30.114C50.2344 29.8429 51.2301 28.8561 51.3813 28.7983C51.6391 28.7227 52.3281 28.7894 53.4217 28.9983C55.0487 29.3139 56.5068 30.1318 57.9204 30.923C58.6805 31.3497 59.4674 31.7898 60.2764 32.1498L60.312 32.1676L60.352 32.1543C60.9299 31.9898 61.2766 31.7631 61.4189 31.4564C61.61 31.0297 61.3789 30.5407 61.1299 30.0162C61.0144 29.7762 60.8988 29.5228 60.8143 29.2739C60.6943 28.9005 60.5921 28.5405 60.4898 28.1893C60.2142 27.2292 59.9519 26.3224 59.3918 25.3311C59.2718 25.1133 59.0629 24.8377 58.8272 24.5132C58.316 23.8198 57.6136 22.8686 57.7514 22.4285C57.8804 22.0018 58.6183 21.664 59.2095 21.3928C59.4718 21.2728 59.7207 21.1572 59.8941 21.0461C60.3742 20.7394 60.8677 20.3571 61.3433 19.9882C61.7567 19.6681 62.1879 19.3348 62.6014 19.0547C62.7569 18.948 62.9881 18.8325 63.237 18.7036C64.0772 18.2724 65.2241 17.6856 64.9618 16.8144ZM56.0267 20.4905C55.5866 20.5838 55.0843 20.6905 54.8531 21.1395C54.4219 21.9751 54.9642 22.4685 55.4399 22.8997C55.6133 23.0597 55.7955 23.2242 55.9289 23.402C56.4223 24.0643 57.1958 25.3534 57.5692 26.0112C58.1071 26.958 58.9428 28.8072 58.8495 29.1805C58.1115 29.0161 57.427 28.6694 56.769 28.336C56.24 28.0648 55.6888 27.7892 55.1065 27.5981C54.5908 27.4292 54.044 27.327 53.5195 27.2336C53.1727 27.1714 52.8171 27.1047 52.4748 27.0203C52.2659 26.9669 52.0214 26.8736 51.7636 26.7758C51.1901 26.5535 50.5366 26.3002 50.0432 26.4513C49.772 26.5357 49.572 26.9802 49.3809 27.4114C49.2831 27.6292 49.1897 27.8381 49.1052 27.9626C48.9408 28.1982 48.7229 28.4427 48.4918 28.7005C48.2651 28.9538 48.0339 29.2161 47.8472 29.4739C47.6961 29.6873 47.4782 30.0073 47.2293 30.3807C46.3758 31.6609 45.0822 33.59 44.4598 33.9056C44.3665 33.9545 44.3353 33.9412 44.3353 33.9412C44.2953 33.9145 44.3042 33.6967 44.3087 33.6256C44.3087 33.5589 44.3131 33.4967 44.3087 33.4522C44.2553 32.8299 44.1931 32.2032 44.1309 31.572C44.0331 30.5807 43.9353 29.5539 43.8641 28.5582C43.8419 28.2515 43.8553 27.9315 43.8641 27.6248C43.8819 27.1981 43.8997 26.758 43.8286 26.3268L43.8108 26.2246L43.7086 26.2335C43.5174 26.2513 43.4863 26.1757 43.4285 26.0379C43.3929 25.949 43.3529 25.8512 43.2551 25.789C43.1307 25.7045 42.9617 25.6467 42.7839 25.5801C42.5928 25.5134 42.3927 25.4423 42.2461 25.34C40.3523 24.0421 37.9874 22.0596 37.4717 19.9837C37.4495 19.8904 37.4406 19.8415 37.4406 19.8193C37.4584 19.8193 37.4762 19.8193 37.494 19.8193C37.5473 19.8193 37.614 19.8282 37.6851 19.8193C38.6409 19.7304 39.7033 19.5792 40.7346 19.4326C42.3216 19.2059 43.9664 18.9703 45.3578 18.9436C45.5267 18.9436 45.6601 18.9703 45.7801 19.0014C46.1579 19.0903 46.3758 19.1036 46.7981 18.3302C47.1937 17.6056 47.5049 16.6099 47.8072 15.6454C48.0072 14.9964 48.2161 14.3296 48.4429 13.774C48.7451 13.0317 49.7543 10.778 50.0477 10.458C50.1855 10.5691 50.2255 10.7025 50.2744 10.8847C50.2877 10.9381 50.3055 10.9914 50.3233 11.0447C50.5233 11.6404 50.7056 12.2627 50.8834 12.8628C51.2257 14.0274 51.5813 15.2364 52.0792 16.3432L52.1414 16.481C52.5682 17.4323 53.0038 18.4146 54.3241 18.3435C55.0042 18.308 55.7688 18.1568 56.5068 18.0057C57.1424 17.8768 57.8004 17.7479 58.3872 17.6945C58.8228 17.659 59.2807 17.6723 59.7163 17.6812C59.9964 17.6901 60.2853 17.699 60.5698 17.6945C59.4763 18.8858 57.7781 19.797 56.5157 20.3616C56.3823 20.4194 56.2089 20.4594 56.0222 20.4994L56.0267 20.4905Z" fill="#AD863D"/>
<path d="M44.5347 47.3342C45.1704 47.1297 45.5216 46.8719 45.6061 46.5563C45.7261 46.1118 45.326 45.6717 44.9037 45.205C44.757 45.0405 44.6014 44.8716 44.4814 44.7072C44.2636 44.4182 44.0413 44.0938 43.8279 43.7826C43.4901 43.2892 43.1389 42.7736 42.7744 42.3513C42.3076 41.8046 41.7608 41.2578 41.1829 40.68C40.2805 39.7776 39.347 38.8442 38.7158 37.8929C38.4446 37.4795 38.2268 36.8305 38.3513 36.3149C39.0758 33.9102 39.8316 31.5587 41.1029 29.2784C41.1652 29.1673 41.2763 29.0651 41.3874 28.9628C41.5252 28.8339 41.6586 28.7139 41.703 28.5628C41.8142 28.1938 41.7253 27.8382 41.4408 27.5537C41.0096 27.1226 40.1783 26.9136 39.587 27.0914C39.4804 27.1226 39.2625 27.2959 38.8847 27.5982C38.6313 27.8027 38.369 28.0116 38.2179 28.1049C38.0756 28.1938 37.8845 28.3138 37.6622 28.4561C36.9332 28.9184 35.8307 29.6207 35.4084 29.7407C34.8528 29.8963 34.1815 29.8652 33.5325 29.834C33.2124 29.8163 32.9101 29.8029 32.6212 29.8074C31.8521 28.865 30.9364 27.896 29.7495 26.7625C29.625 26.6425 29.4827 26.5091 29.3316 26.358C28.6248 25.6779 27.6602 24.7489 27.0734 24.3C26.7 24.0155 25.9976 23.5665 25.513 23.7666C25.273 23.8643 25.1219 24.1088 25.073 24.4822C24.9352 25.5001 24.8373 26.5803 24.744 27.6204C24.5573 29.6785 24.3661 31.8121 23.8594 33.6879C23.8371 33.7768 23.8594 33.8613 23.886 33.9457C23.9083 34.0257 23.9305 34.1057 23.9038 34.168C23.8016 34.4169 22.5524 35.946 22.2324 36.2749C21.8901 36.6261 21.5344 36.9728 21.1877 37.3106C20.7565 37.7284 20.312 38.1641 19.8808 38.6219C19.6896 38.8264 19.4451 39.0131 19.2095 39.1909C18.7339 39.5554 18.2804 39.8976 18.2627 40.3688C18.2493 40.6755 18.4271 40.9956 18.805 41.3423C19.494 41.969 21.3255 41.8579 22.3168 41.8001C22.7391 41.7734 23.2503 41.6756 23.7438 41.5823C24.2105 41.4934 24.6951 41.4001 25.0907 41.3734C25.4597 41.3467 25.842 41.3556 26.211 41.3645C26.4688 41.3689 26.7355 41.3734 26.9978 41.3689C27.0067 41.5867 26.9978 41.8179 26.9845 42.0401C26.9711 42.3157 26.9578 42.6047 26.9845 42.8758C27.06 43.707 27.2467 44.596 27.429 45.4539C27.6201 46.3518 27.7979 47.1964 27.8557 47.9787C27.8824 48.3254 27.8335 48.6588 27.7846 48.9789C27.6957 49.5656 27.6157 50.1168 27.9758 50.7035C28.1402 50.9702 28.4914 51.1525 28.9315 51.2014C29.0115 51.2103 29.0871 51.2147 29.1671 51.2147C29.5716 51.2147 29.9451 51.0991 30.1362 50.9036C30.2473 50.7924 30.3407 50.4857 30.483 49.9923C30.5719 49.6945 30.6608 49.3834 30.7408 49.2189C31.0742 48.5344 31.5543 47.8498 32.0211 47.1875C32.4745 46.5385 32.9457 45.8673 33.2924 45.1828L33.6836 44.8183C35.6796 44.9561 37.8 45.3073 40.1472 45.8984L44.4992 47.3609L44.5347 47.3475V47.3342ZM29.5761 46.9519C29.5761 46.9519 29.5672 46.9519 29.5628 46.9519L28.9226 42.418L28.9137 42.3913C28.7448 41.9912 28.9582 41.5423 29.1449 41.1422C29.2605 40.8978 29.3627 40.6844 29.3583 40.5066C29.3583 39.6843 28.3403 39.1731 27.7046 39.0442H27.6735L27.6424 39.0486C26.0554 39.6709 24.3083 39.8176 22.6147 39.9599C22.2235 39.991 21.8323 40.0265 21.4411 40.0621C21.4322 39.9243 21.4944 39.8665 21.6056 39.7643C21.6545 39.7198 21.7078 39.6709 21.7567 39.6131C22.3435 38.9064 23.0548 38.2085 23.7393 37.5373C24.5617 36.7239 25.4152 35.8882 26.1043 34.9947L26.1265 34.9636V34.9236C26.0909 32.4522 26.3843 29.9941 26.6688 27.616C26.7088 27.287 26.7488 26.9581 26.7844 26.6292C26.9889 26.6958 27.549 27.0914 27.8824 27.367L28.1225 27.5626C28.5848 27.9449 29.2872 28.5183 29.5405 28.7806C29.8651 29.1139 30.9364 30.4964 31.1097 30.892C31.2164 31.132 31.2653 31.3542 31.3142 31.5721C31.4432 32.1366 31.5543 32.6211 32.5812 32.7856C32.8212 32.8256 34.1726 32.3766 34.4126 32.2833C34.586 32.2166 35.0394 31.9766 35.6129 31.6787C36.3997 31.2653 37.6667 30.6075 38.0667 30.483C37.9823 30.8386 37.8134 31.1987 37.6489 31.5454C37.5155 31.8254 37.3777 32.1144 37.2888 32.3944C37.1643 32.7856 37.0621 33.2701 36.9554 33.7812C36.7909 34.568 36.622 35.3815 36.3553 35.9193C36.253 36.1238 36.0974 36.2794 35.9463 36.426C35.5818 36.7861 35.2039 37.1595 35.9819 38.0129C36.1775 38.2263 36.4264 38.3463 36.6664 38.4619C36.8531 38.5508 37.0265 38.6352 37.1821 38.7597C37.3866 38.9286 37.5066 39.1197 37.6222 39.3109C37.7067 39.4487 37.7956 39.5909 37.9112 39.7154C38.329 40.1688 38.778 40.6177 39.2092 41.0578C39.9338 41.7912 40.6806 42.5469 41.3296 43.3337C41.7342 43.8271 42.3121 44.6672 42.3921 44.9383C41.9831 44.8139 41.5786 44.6849 41.1696 44.556C39.9071 44.156 38.6002 43.7426 37.2621 43.4848C36.9687 43.427 36.6576 43.4092 36.3242 43.3914C35.8796 43.3648 35.4173 43.3381 34.9817 43.2136C34.7594 43.1514 34.5104 43.0358 34.2482 42.9158C33.448 42.5469 32.4478 42.089 31.821 43.1025C31.7054 43.2848 31.6565 43.5115 31.6032 43.7337C31.5587 43.9204 31.5187 44.0982 31.4476 44.236C31.1898 44.7205 30.7719 45.3739 30.3985 45.9473L30.3407 46.0407C29.9762 46.6274 29.7183 46.9297 29.5805 46.943L29.5761 46.9519Z" fill="#AD863D"/>
<path d="M25.8824 60.8864C25.758 60.7797 25.6157 60.6597 25.4913 60.4952C25.2868 60.2196 25.0956 59.9129 24.9133 59.6151C24.7222 59.3039 24.5266 58.9795 24.3043 58.6905C24.1487 58.4816 23.8953 58.1927 23.6064 57.8504C22.8374 56.957 21.7838 55.7301 21.7127 55.1789C21.7038 55.1167 21.7305 55.0412 21.7616 54.9567C21.7972 54.8589 21.8371 54.7433 21.8283 54.6189C21.8238 54.5077 21.7927 54.4144 21.7616 54.3255C21.7127 54.1833 21.6638 54.0366 21.6993 53.7921C21.7394 53.5298 22.4906 51.4851 22.6062 51.334C22.6551 51.2673 22.7529 51.2362 22.8463 51.2095C22.9352 51.1829 23.0196 51.1606 23.0818 51.0984C23.3575 50.8317 23.4464 50.0138 23.3441 49.6715C23.2019 49.1915 21.8727 48.5736 21.4638 48.6358C21.3304 48.6581 21.2015 48.7425 21.0814 48.8225C20.9703 48.8981 20.8592 48.9737 20.748 48.9959C20.6191 49.0226 20.4769 49.0226 20.3435 49.0226C20.2102 49.0226 20.0768 49.0226 19.9479 49.0448C19.7345 49.0848 19.4989 49.1426 19.2455 49.2048C18.4853 49.3915 17.6274 49.6049 17.0317 49.4315C16.6405 49.3159 15.8537 48.3647 15.1602 47.5246C14.529 46.76 13.9289 46.0355 13.5065 45.7466C12.8798 45.3154 12.4174 45.1909 12.1018 45.3643C11.5995 45.6354 11.6173 46.5689 11.6306 47.3912C11.635 47.6757 11.6395 47.9424 11.6262 48.1602C11.6173 48.2625 11.5773 48.378 11.5373 48.498C11.4839 48.6492 11.4261 48.8181 11.4128 49.0137C11.3994 49.2004 11.4128 49.5604 11.4261 49.9782C11.4439 50.5116 11.475 51.3918 11.4172 51.5829C11.3994 51.5829 11.3817 51.5829 11.3683 51.5829C11.275 51.5829 11.155 51.5918 11.0883 51.6718C11.0083 51.7607 10.9638 51.8585 10.9149 51.9518C10.8482 52.0896 10.7815 52.2185 10.6082 52.3519C9.80355 52.9698 8.24769 53.5209 7.31416 53.5209C7.30527 53.5209 7.29193 53.5209 7.28304 53.5209H7.20303L7.17636 53.5921C6.9452 54.2099 6.90075 54.3922 7.29194 54.9567C7.78538 55.6679 8.19878 55.7701 8.71889 55.9035C8.93226 55.9568 9.15898 56.0146 9.41681 56.1169C9.67464 56.2235 9.91913 56.3302 10.1636 56.4325C10.6704 56.6547 11.1461 56.8592 11.7062 57.037C11.8351 57.077 11.964 57.0948 12.0929 57.1125C12.3463 57.1481 12.5508 57.1748 12.6842 57.3704C12.2663 58.2416 12.2885 59.175 12.3107 60.0774C12.3241 60.5797 12.3374 61.0997 12.2707 61.5976C12.2352 61.8687 12.1463 62.0732 12.0574 62.2644C11.8795 62.6644 11.724 63.0111 12.1952 63.7001C12.4974 64.1446 13.0309 64.4646 13.5465 64.4646C13.7599 64.4646 13.9733 64.4069 14.1645 64.278C14.2534 64.2157 14.3867 63.989 14.6935 63.4512C14.889 63.1 15.1113 62.7044 15.2447 62.5399C15.5114 62.2066 17.3651 60.3219 17.5518 60.2196C17.7963 60.0952 18.0719 60.0729 18.3875 60.1574C19.0677 60.5886 19.8634 60.9797 20.8192 61.3576C21.766 61.7265 23.8287 62.4733 24.8911 62.6555C25.3979 62.74 25.7268 62.6955 26.0247 62.211C26.5137 61.4242 26.2158 61.1753 25.878 60.8819L25.8824 60.8864ZM14.2934 60.3085C14.3245 60.2596 14.369 60.193 14.3778 60.1041C14.3912 59.9529 14.3912 59.7974 14.3956 59.6418C14.4001 59.3884 14.4045 59.1306 14.4534 58.9128C14.5245 58.575 14.8002 58.2238 15.0447 57.9171C15.2714 57.6282 15.4669 57.3837 15.4936 57.1614C15.5514 56.6992 15.4758 56.3435 15.258 56.0768C14.8535 55.5834 14.0355 55.5257 13.3154 55.4723C13.0398 55.4545 12.782 55.4368 12.5597 55.3968C12.3552 55.3612 10.866 54.8811 10.7549 54.8189C10.6704 54.7522 10.666 54.7167 10.666 54.7167C10.6793 54.6722 10.8527 54.6055 10.9149 54.5789C10.946 54.5655 10.9771 54.5522 11.0083 54.5433C11.8173 54.1921 12.044 54.0988 12.9109 53.8988C13.2709 53.8188 13.5199 53.6543 13.6577 53.4187C13.92 52.9609 13.7199 52.3119 13.5421 51.7385C13.4532 51.4496 13.3688 51.1829 13.351 50.9606C13.271 50.0938 13.3376 49.2048 13.5377 48.4403C14.1289 48.6803 14.6268 49.6582 15.0669 50.5205C15.4581 51.2895 15.7692 51.8985 16.1249 52.0007C16.5516 52.1296 17.6363 51.7607 18.6898 51.4051C19.3122 51.1962 20.1524 50.9117 20.388 50.9295C20.2946 51.8274 19.899 52.6497 19.5122 53.4409C19.3077 53.8588 19.0988 54.2899 18.9343 54.7344L18.9165 54.7833L18.9432 54.8278C19.4055 55.5746 20.0235 56.2146 20.6236 56.8369C21.0992 57.3303 21.5927 57.8415 22.0016 58.4016C22.375 58.9128 23.0418 59.944 23.1619 60.3041C22.9351 60.2285 22.6907 60.1574 22.4328 60.0863C21.9172 59.9351 21.3882 59.7796 20.9792 59.6018C20.5613 59.4151 19.6678 58.9483 19.3878 58.6816C19.2855 58.5839 19.2144 58.4683 19.1388 58.3483C18.9966 58.1171 18.8321 57.8549 18.3964 57.6948C17.0495 57.1926 16.2938 58.2327 15.5603 59.2417C15.2047 59.7307 14.8401 60.2374 14.4134 60.5397C14.2311 60.4108 14.2534 60.3752 14.2934 60.3174V60.3085Z" fill="#AD863D"/>
<path d="M60.1341 33.4743L60.0852 33.4609L60.0452 33.4876C58.0181 34.83 55.8399 36.7636 53.915 38.9328C53.3371 39.5818 52.6125 40.493 52.1102 41.1953C51.7323 41.7243 49.9053 44.4135 49.723 45.0492C49.5274 45.7248 49.5319 46.5827 49.9231 46.8316C49.9986 46.8805 50.0831 46.9072 50.172 46.9072C50.3721 46.9072 50.6032 46.7916 50.8744 46.5649C51.7546 45.8182 52.4925 44.618 53.2082 43.4534C53.7194 42.6266 54.1995 41.8443 54.7241 41.2131C55.7376 39.9996 57.2668 38.3905 58.8182 36.9058L61.1165 35.2167L61.1254 35.1812C61.2276 34.8389 61.1921 34.4789 61.0187 34.1677C60.832 33.8299 60.5119 33.5765 60.1341 33.4743Z" fill="#AD863D"/>
<path d="M28.6611 14.3248C29.4834 14.3248 31.3727 13.4891 33.4176 12.5468C33.9644 12.2934 34.4 12.0934 34.6179 12.0089C36.2315 11.3999 37.9963 10.9643 39.6989 10.542C41.4504 10.1064 43.2641 9.66192 44.8689 9.02628C45.4245 8.80847 45.6112 8.3773 45.5979 8.05281C45.5801 7.67498 45.3223 7.35494 44.9355 7.23937C44.371 7.07046 42.8684 7.44384 41.5037 7.80389C41.357 7.84389 41.2281 7.87945 41.1214 7.90613C35.4402 9.34632 31.5372 10.9065 29.1901 12.6757C28.9144 12.8846 28.7855 13.178 28.6611 13.4624C28.5633 13.6847 28.4744 13.8936 28.3143 14.0714L28.2388 14.1559L28.3232 14.2314C28.3944 14.2937 28.5099 14.3203 28.6655 14.3203L28.6611 14.3248Z" fill="#AD863D"/>
<path d="M15.036 34.3496C15.2493 34.3496 15.4672 34.2962 15.645 34.2029C15.9517 34.0473 16.5652 33.3761 17.1564 32.7271C17.5343 32.3137 17.8854 31.927 18.1166 31.7225C18.4856 31.3936 19.0368 30.9402 19.3924 30.6602C20.8149 29.5356 22.3175 28.6243 23.7667 28.0065C23.8867 27.9309 23.9711 27.7575 24.02 27.4908C24.0778 27.1752 24.0912 26.6374 23.98 26.4818C23.9222 26.4018 23.171 26.0151 23.1665 26.0106C22.8509 25.9129 22.2197 26.2418 21.6018 26.5885L21.4462 26.673C19.1212 27.9398 17.4009 29.2644 15.5205 31.2514C15.4182 31.358 15.2938 31.4736 15.1604 31.5981C14.6536 32.0737 14.0224 32.6604 14.0046 33.2961C13.9957 33.5717 14.1113 33.8339 14.338 34.0695C14.5247 34.2607 14.7826 34.3451 15.0449 34.3451L15.036 34.3496Z" fill="#AD863D"/>
<path d="M38.6322 45.8802C38.1965 45.5646 37.5519 45.4001 37.2897 45.6668C37.263 45.6935 37.2496 45.729 37.1963 45.8802C37.1207 46.0846 36.9918 46.4313 36.8451 46.6269C36.574 46.987 36.0139 47.4804 35.4671 47.9604C34.7869 48.5605 34.1423 49.1295 33.9467 49.5162C33.7912 49.8229 33.7423 50.4541 33.9068 50.8364C33.9823 51.0097 34.0979 51.1209 34.2446 51.1653C34.3557 51.1964 34.458 51.2098 34.5513 51.2098C34.9825 51.2098 35.2359 50.9253 35.4804 50.6497C35.5871 50.5297 35.6982 50.4008 35.8272 50.303C35.9161 50.2319 36.0183 50.1741 36.1205 50.1118C36.2406 50.0407 36.365 49.9696 36.4762 49.8763C36.7873 49.6051 38.9033 47.5959 39.0634 47.2848C39.3212 46.7914 39.1611 46.2669 38.6366 45.8846L38.6322 45.8802Z" fill="#AD863D"/>
<path d="M18.5123 47.4365C18.6323 47.512 18.7612 47.5476 18.8902 47.5476C19.0191 47.5476 19.1524 47.5076 19.2769 47.432C19.5525 47.2631 19.8593 46.7475 20.1838 46.2052C20.4238 45.8007 20.6727 45.3784 20.8861 45.1606C21.2418 44.7917 21.7796 44.4005 22.2997 44.0271C22.562 43.836 22.811 43.6537 23.0466 43.467C23.2333 43.2359 23.2466 42.9292 23.0866 42.6002C22.8821 42.1691 22.4465 41.8357 22.0953 41.8357C21.5618 41.8357 19.1035 44.2005 18.8101 44.6094C18.5568 44.9695 18.0633 46.054 18.0322 46.4808C18.0055 46.8542 18.2011 47.2453 18.5123 47.4365Z" fill="#AD863D"/>
<path d="M33.8265 21.3611C33.4575 21.37 32.1283 22.4724 30.5591 23.797C30.1679 24.1304 29.8567 24.3927 29.6967 24.5127L29.6611 24.5393L29.6523 24.5838C29.5767 25.0105 29.6923 25.3706 29.9723 25.5928C30.159 25.744 30.408 25.8195 30.688 25.8195C30.9236 25.8195 31.177 25.7662 31.4393 25.6506L34.9689 22.9925L34.9956 22.9614C35.1556 22.6991 35.1467 22.3791 34.9645 22.0635C34.7289 21.6501 34.2576 21.3567 33.8398 21.3567H33.822L33.8265 21.3611Z" fill="#AD863D"/>
<path d="M21.3038 18.4318C21.3927 18.4629 21.4905 18.4762 21.5972 18.4762C22.1395 18.4762 22.8508 18.0851 23.4953 17.7384C23.8688 17.5339 24.2244 17.3428 24.4911 17.2539L24.54 17.2361L24.5578 17.1872C24.7267 16.756 24.6601 16.3204 24.38 15.9915C24.0555 15.6136 23.4998 15.4492 22.9619 15.5692C22.7485 15.6181 20.6059 16.6938 20.4992 16.8494C20.3436 17.0716 20.308 17.325 20.388 17.5739C20.5214 17.9917 20.9437 18.3029 21.3038 18.4318Z" fill="#AD863D"/>
<path d="M48.6422 49.0583C48.4955 48.9516 48.3488 48.8449 48.1488 48.8138C47.4687 48.7071 47.2108 49.0449 47.1175 49.2538C46.8997 49.7472 47.1441 50.5385 47.6465 50.943C47.8599 51.1163 48.0955 51.2052 48.34 51.2052C48.5844 51.2052 48.8245 51.1208 49.0556 50.9519L49.1001 50.9207L49.1801 49.285L49.0734 49.2761C48.909 49.2583 48.78 49.1649 48.6422 49.0627V49.0583Z" fill="#AD863D"/>
</svg>
