<svg width="72" height="72" viewBox="0 0 72 72" fill="none" xmlns="http://www.w3.org/2000/svg">
<path d="M69.9481 22.2323C69.9792 21.9028 69.917 21.6556 69.8651 21.3879C69.8443 21.2849 69.8131 21.1716 69.7924 21.048C69.7924 21.0068 69.7924 20.9656 69.7924 20.9244C69.7924 20.8729 69.7924 20.8111 69.7924 20.7493C69.6471 19.7916 69.1073 18.7823 68.3287 17.9893C68.2353 17.8966 68.1523 17.8039 68.0381 17.7318L68.09 17.495L67.9343 17.5259C67.8409 17.5465 67.8409 17.5362 67.789 17.4744C67.7682 17.4332 67.7371 17.392 67.6955 17.3508C67.6436 17.2993 67.5917 17.2787 67.5294 17.2581C67.4775 17.2375 67.436 17.2169 67.4049 17.186C67.4049 17.186 67.3945 17.1654 67.3841 17.1448C67.3841 17.1139 67.3634 17.083 67.3322 17.0521C67.2907 17.0109 67.2284 16.9903 67.1142 16.9594C67.0519 16.9388 66.9689 16.9182 66.917 16.8976V16.8461C66.917 16.7226 66.917 16.6093 66.917 16.4857C66.9378 16.2385 66.9689 16.0223 67 15.7751L67.0208 15.6206C67.0208 15.5485 67.0416 15.4764 67.0623 15.3837C67.0935 15.1881 67.1246 14.9821 67.135 14.8482C67.135 14.7349 67.0623 14.6628 67.0208 14.601C67.0104 14.5804 66.9897 14.5598 66.9897 14.5598C66.9897 14.5392 66.9897 14.4672 67.0104 14.4157C67.0104 14.3642 67.0312 14.3127 67.0312 14.2818C67.0312 14.0552 66.9793 13.911 66.917 13.7565C66.8962 13.7051 66.8651 13.6433 66.8443 13.5815C66.8443 13.5506 66.8236 13.5094 66.8236 13.4785C66.8132 13.3858 66.7924 13.3034 66.7509 13.2416C66.699 13.1695 66.6264 13.1592 66.5848 13.1489C66.5744 13.1489 66.5537 13.1489 66.5537 13.1489C66.5433 13.1386 66.5225 13.0974 66.5018 13.0562C66.481 13.0047 66.4499 12.9533 66.4187 12.9018C66.3565 12.8297 66.2734 12.7576 66.18 12.6855C66.1177 12.634 66.0554 12.5928 66.0139 12.5516C65.9931 12.5207 65.9412 12.4486 65.8893 12.3765C65.7752 12.2118 65.7232 12.1397 65.6713 12.1088C65.3807 11.9234 65.0589 11.8204 64.7475 11.7174C64.6229 11.6762 64.488 11.635 64.3634 11.5938C64.1869 11.532 64.0312 11.4496 63.8652 11.3673C63.7406 11.2952 63.6056 11.2334 63.4603 11.1716C62.661 10.842 61.7579 10.667 60.886 10.5022C60.533 10.4301 60.1593 10.358 59.8064 10.2859C58.9033 10.0799 58.0625 9.97694 57.1698 9.85336L56.931 9.82246C56.6196 9.78127 56.3082 9.74007 56.0071 9.69888C55.2909 9.60619 54.5435 9.5032 53.7961 9.44141L52.457 9.32812C52.3844 9.32812 52.2909 9.34872 52.1871 9.37962C52.1249 9.40022 52.0626 9.41051 52.0314 9.42081C51.8342 9.44141 51.6474 9.45171 51.4605 9.47231C50.9934 9.5135 50.4951 9.5444 50.028 9.63708C49.3221 9.76067 48.6474 10.0284 47.9831 10.2859L47.6613 10.4095C47.3187 10.5434 46.9969 10.6978 46.5713 10.9244C46.5194 10.9553 46.4675 10.9965 46.4156 11.0377C46.3533 11.0892 46.3014 11.1304 46.2495 11.151C46.0523 11.2334 45.8135 11.2746 45.5955 11.3158C45.3983 11.357 45.2011 11.3879 45.0142 11.4496C44.8897 11.5011 44.7755 11.5526 44.6613 11.6144C44.5783 11.6659 44.4952 11.7071 44.4018 11.738L44.3499 11.7586V11.8101C44.3499 11.8101 44.3188 11.8925 44.298 11.944C44.2668 12.0161 44.2357 12.0882 44.2357 12.15C44.2357 12.222 44.2565 12.2735 44.2772 12.3147C44.2772 12.3353 44.298 12.3559 44.298 12.3662V12.5104C44.298 12.5825 44.298 12.6546 44.298 12.7267C44.3084 12.8194 44.4226 12.9739 44.4952 13.0871C44.4433 13.1077 44.381 13.118 44.3188 13.1386C44.1838 13.1592 44.0385 13.2004 43.8932 13.3343C43.7063 13.4991 43.7167 13.5918 43.7478 13.7154C43.7478 13.7565 43.7686 13.7874 43.7686 13.8389C43.7686 13.9934 43.7374 14.1582 43.7167 14.3127C43.6959 14.4569 43.6648 14.601 43.6648 14.7452C43.6648 14.8688 43.644 14.9512 43.6233 15.0336C43.6129 15.1057 43.6025 15.1675 43.5921 15.2499C43.5921 15.3425 43.6129 15.4146 43.6233 15.4661C43.6233 15.4867 43.644 15.5073 43.644 15.5176C43.644 15.5485 43.5921 15.7339 43.5714 15.7648C43.5195 15.8781 43.426 15.909 43.2703 15.9605C43.1873 15.9811 43.1042 16.012 43.0316 16.0532L42.9901 16.0737C42.8966 16.1252 42.7928 16.187 42.6994 16.2385C42.4295 16.4033 42.3672 16.496 42.2738 16.6608C42.2427 16.7123 42.2011 16.7844 42.1389 16.8667C42.1077 16.9182 42.0766 16.9491 42.0558 16.98C41.9831 17.0727 41.9624 17.1036 41.8793 17.2993C41.8586 17.3611 41.7963 17.4435 41.734 17.5156C41.6614 17.6288 41.6095 17.6906 41.5887 17.7524C41.5368 17.9172 41.4953 18.082 41.4641 18.2468C41.4226 18.4321 41.3707 18.6175 41.3188 18.7926C41.1423 19.359 41.1008 19.8843 41.0593 20.5125L41.0385 20.739C41.0178 21.1407 40.9762 21.5938 41.0178 21.9955C41.0178 21.9955 41.0904 22.5722 41.2669 22.6855C41.3084 22.7061 41.3396 22.7164 41.3707 22.7267C41.3915 22.7267 41.4122 22.7267 41.4226 22.737C41.4537 22.7576 41.5057 22.7988 41.5679 22.84C41.6717 22.9224 41.7133 22.9533 41.7444 22.9636C41.8378 22.9841 41.952 22.9841 42.0558 22.9739C42.1285 22.9739 42.2011 22.9739 42.2634 22.9739C42.3776 22.9841 42.4606 23.0459 42.5541 23.118C42.606 23.1592 42.6683 23.1901 42.7202 23.2313C42.7721 23.2519 42.824 23.2725 42.8862 23.2931C43.0316 23.3446 43.1458 23.3858 43.1458 23.4888C43.1354 23.5197 43.1146 23.5609 43.125 23.6124C43.1873 24.2818 43.1561 24.9924 43.125 25.6721C43.0939 26.3415 43.0627 27.0315 43.125 27.6906C43.125 27.7627 43.125 27.8348 43.125 27.876C43.0731 28.4218 43.0731 28.978 43.0731 29.5238C43.0731 29.7916 43.0731 30.0593 43.0731 30.3374C43.1146 31.7174 43.0939 33.1283 43.0835 34.4981C43.0627 36.4342 43.042 38.4424 43.1769 40.3992C43.2184 41.2231 43.2496 42.047 43.2807 42.8606C43.343 44.3951 43.4053 45.9811 43.5298 47.5774C43.5506 47.773 43.561 48.0099 43.5714 48.1953C43.6025 48.7823 43.6233 49.359 43.6336 49.9563C43.6648 50.9656 43.6959 52.0161 43.779 53.015C43.8412 53.736 43.9243 54.3951 44.0385 55.0542C44.0385 55.0954 44.0385 55.1469 44.0385 55.1881C44.0385 55.2602 44.0385 55.3322 44.0385 55.4043C44.0385 55.4455 44.1942 55.7957 44.2357 55.8369C44.2772 55.8781 44.3188 55.8987 44.3707 55.9193C44.381 55.9296 44.3914 55.9502 44.4018 55.9708C44.4226 56.0017 44.4433 56.0429 44.4745 56.0737C44.5886 56.1767 44.7859 56.2488 44.9727 56.3106C45.0558 56.3312 45.1284 56.3621 45.1907 56.3827C45.3879 56.4651 45.554 56.599 45.7409 56.7329C45.8135 56.7844 45.8966 56.8461 45.9796 56.8976C47.0696 57.6391 48.5332 58.0408 49.3118 58.2159C49.6439 58.288 50.0072 58.4527 50.3394 58.6175C50.682 58.772 51.0349 58.9368 51.3775 59.0192C51.4294 59.0295 51.4813 59.0295 51.5228 59.0192C51.5539 59.0192 51.5955 59.0192 51.6162 59.0192C51.6681 59.0295 51.72 59.081 51.7823 59.1325C51.8757 59.2148 51.9899 59.3281 52.156 59.3281C52.1975 59.3281 52.239 59.3281 52.2806 59.3075C52.3221 59.2972 52.3532 59.2663 52.374 59.2457C52.3947 59.2251 52.4051 59.2148 52.4259 59.2148C52.7788 59.1633 53.2148 59.1839 53.6508 59.2148C54.0037 59.2354 54.3567 59.2457 54.6784 59.2251C54.9899 59.2045 55.322 59.1325 55.6334 59.0707L55.8307 59.0295C56.1213 58.9677 56.3808 58.9883 56.6715 59.0089C56.7961 59.0089 56.9102 59.0192 57.0348 59.0295C57.3047 59.0295 57.585 59.0089 57.8549 58.978C58.0313 58.9574 58.2078 58.9471 58.3843 58.9368C58.5919 58.9368 58.6853 58.8853 58.7787 58.8441C58.8306 58.8235 58.8825 58.7926 58.9656 58.7823C59.4223 58.6896 59.7753 58.5969 60.0867 58.5145C60.1386 58.5042 60.2008 58.463 60.2631 58.4218C60.3358 58.3806 60.4085 58.3395 60.4604 58.3292C60.7718 58.2468 61.1143 58.2056 61.4465 58.1747C61.8721 58.1335 62.3081 58.082 62.6818 57.9378C62.7752 57.8966 62.8686 57.8451 62.9724 57.8039C63.1489 57.7215 63.3254 57.6288 63.5018 57.5979L63.6056 57.6391L63.6575 57.5671C63.6575 57.5671 63.6783 57.5156 63.6783 57.495C63.6887 57.495 63.7094 57.4847 63.7302 57.4744V57.5877L63.8548 57.5568C63.9482 57.5362 64.0001 57.5671 64.0831 57.6391C64.1558 57.6906 64.2285 57.7524 64.3426 57.773C64.5399 57.7936 64.9655 57.773 65.1627 57.7009C65.2561 57.6597 65.3807 57.5156 65.4222 57.4744C65.4222 57.4744 65.5987 57.1963 65.6194 57.1551C65.6402 57.0933 65.6298 57.0006 65.6194 56.877C65.6194 56.7535 65.5987 56.6299 65.6194 56.5475C65.6194 56.5166 65.6402 56.4754 65.6713 56.4445C65.7025 56.393 65.7233 56.3415 65.7336 56.2797C65.7336 56.2179 65.7232 56.1561 65.7129 56.0943C65.6921 56.0223 65.6817 55.9502 65.6817 55.8781C65.7233 55.394 65.744 54.91 65.7544 54.4363C65.7752 53.808 65.8063 53.1695 65.879 52.531C65.9412 52.0264 65.9931 51.5217 66.0347 51.0274C66.0969 50.3374 66.1592 49.6268 66.2838 48.9265C66.2942 48.8544 66.3046 48.7926 66.3046 48.7205C66.3149 48.5866 66.3253 48.463 66.3772 48.3498C66.4499 48.3086 66.5537 48.2777 66.6471 48.2365C66.7405 48.1953 66.8236 48.1747 66.8962 48.1335C66.9481 48.1026 67.0208 48.0408 67.0831 47.9893C67.135 47.9481 67.1765 47.9069 67.218 47.876C67.2803 47.8348 67.3322 47.8039 67.3841 47.773C67.5398 47.6803 67.6852 47.6082 67.7993 47.3714C67.8824 47.2169 67.872 47.1551 67.8409 47.0521C67.8409 47.0315 67.8201 47.0006 67.8201 46.9594V46.8667C67.8201 46.8667 67.8201 46.7535 67.8201 46.6917C67.7993 46.6196 67.7474 46.5681 67.6955 46.5269C67.6748 46.5063 67.6436 46.4754 67.6333 46.4754C67.6333 46.4445 67.6333 46.393 67.6333 46.3518C67.6333 46.2694 67.6436 46.1767 67.6021 46.084C67.5814 46.0532 67.4049 45.8163 67.3737 45.7957C67.1973 45.6309 66.8443 45.5176 66.6056 45.6309C66.6056 45.5382 66.6056 45.291 66.6056 45.1984C66.616 45.0542 66.6367 44.8997 66.6575 44.7452C66.6783 44.6216 66.6886 44.4981 66.7094 44.3848C66.7405 44.0758 66.7821 43.7874 66.8236 43.4785C66.8755 43.0562 66.9274 42.6237 66.9689 42.1912C67.0104 41.738 67.0519 41.2952 67.0831 40.8523C67.1454 40.049 67.218 39.2148 67.3218 38.3909C67.353 38.1644 67.3737 37.9584 67.3945 37.7421C67.4153 37.5053 67.4464 37.2684 67.4775 37.0212C67.5398 36.5578 67.571 36.1046 67.6021 35.6309C67.6021 35.4867 67.6229 35.3425 67.6333 35.1881C67.6436 35.013 67.6748 34.8276 67.7059 34.6422C67.7371 34.4363 67.7786 34.22 67.789 34.0243C67.789 33.9522 67.7786 33.8698 67.7578 33.808C67.7474 33.7565 67.7371 33.7051 67.7371 33.6742C67.7371 33.633 67.789 33.3858 67.8201 33.2828C67.872 33.2828 67.9447 33.2622 67.9966 33.2004C68.0381 33.1489 68.1627 32.9944 68.2146 32.9327C68.2146 32.9327 68.4118 32.5619 68.4118 32.4898C68.4118 32.4177 68.391 32.3456 68.3599 32.2735C68.3391 32.2015 68.308 32.1191 68.308 32.0676V31.9543H68.1627C68.1419 31.8513 68.0692 31.7895 68.0277 31.7483C68.007 31.7277 67.9758 31.7071 67.9654 31.6865C67.9031 31.5835 67.9135 31.5423 67.9343 31.4702C67.9343 31.4291 67.955 31.3776 67.955 31.3158C67.9966 29.874 68.1315 28.4218 68.2665 27.0109C68.3184 26.4651 68.3703 25.9193 68.4118 25.3631C68.4222 25.2293 68.4222 25.0954 68.4325 24.9615C68.4325 24.7658 68.4325 24.5907 68.4637 24.4157C68.4637 24.3745 68.4844 24.323 68.4948 24.2818C68.5052 24.2303 68.526 24.1685 68.5364 24.117C68.5883 24.0861 68.6921 24.0449 68.7543 24.014C68.827 23.9831 68.8997 23.9522 68.9308 23.9316C69.045 23.8595 69.1384 23.7463 69.2318 23.6433C69.263 23.6124 69.2941 23.5712 69.3149 23.5506C69.3149 23.5506 69.3356 23.5403 69.3564 23.53C69.4187 23.5094 69.5017 23.4785 69.5744 23.4064C69.699 23.2828 69.8962 22.9224 69.9066 22.7267C69.9066 22.6649 69.8858 22.6134 69.8651 22.5722C69.8651 22.5722 69.8858 22.5413 69.8962 22.5207C69.9377 22.4692 69.9896 22.3868 70 22.2838L69.9481 22.2323ZM45.8447 13.3549C45.8447 13.3549 45.8966 13.2931 45.9173 13.2622C45.9381 13.221 45.9485 13.1798 45.9589 13.1489C45.9589 13.1283 45.9589 13.0974 45.9589 13.0974H45.9796C45.9796 13.0974 46.1976 12.9327 46.2184 12.9121C46.3118 12.8606 46.3845 12.8606 46.509 12.8709H46.5921L46.6336 12.7576C46.8516 12.7061 47.0592 12.5928 47.2564 12.4795C47.381 12.4074 47.4848 12.3559 47.5886 12.3044C47.7235 12.2529 47.8792 12.2118 48.0453 12.1603C48.2633 12.0985 48.4813 12.0367 48.6682 11.944C48.7616 11.8925 48.8031 11.8307 48.8343 11.7792C48.8343 11.7689 48.855 11.738 48.8654 11.738C48.9484 11.7071 49.0419 11.6762 49.1353 11.6453C49.2183 11.6144 49.3117 11.5835 49.3948 11.5526C50.1007 11.2849 50.7027 11.1716 51.3982 11.0789L51.6681 11.0377C52.156 10.9656 52.7684 10.8832 53.2148 10.9244C53.4016 10.945 53.5781 10.9656 53.7546 10.9862C54.0452 11.0171 54.3463 11.0583 54.6473 11.0789C55.0314 11.1098 55.4362 11.1819 55.8307 11.254C56.2355 11.3261 56.6715 11.4085 57.0556 11.4291C57.1282 11.4291 57.1801 11.4085 57.2217 11.3879C57.232 11.3879 57.2424 11.3879 57.2217 11.3776C57.2424 11.3776 57.2736 11.3982 57.3047 11.4085C57.3774 11.4394 57.4812 11.4805 57.6161 11.4805C58.2597 11.4805 59.1628 11.5938 59.7752 11.7483C59.8272 11.7586 59.8791 11.7895 59.9413 11.8204C60.0036 11.8513 60.0555 11.8719 60.1074 11.8925C60.3877 11.9543 60.6784 12.0058 60.9586 12.0573C61.5815 12.1603 62.225 12.2735 62.796 12.5001L62.8479 12.5207L62.9413 12.4692C62.9413 12.4692 62.9413 12.5928 62.9932 12.634C63.0451 12.6855 63.1281 12.7061 63.3357 12.7473C63.4084 12.7576 63.4707 12.7679 63.5018 12.7885C63.6264 12.8297 63.751 12.8812 63.8755 12.9327C64.0416 13.0047 64.2181 13.0768 64.4049 13.1283C64.4465 13.1386 64.488 13.1386 64.5295 13.1386H64.5918C64.5918 13.1386 64.5918 13.1695 64.5918 13.1798C64.5918 13.2107 64.5918 13.2519 64.6229 13.2931C64.6644 13.3446 64.7267 13.3549 64.8305 13.3755C64.8513 13.3755 64.8721 13.3755 64.8824 13.3755C64.9032 13.4167 64.9343 13.4785 64.9551 13.5197C64.9343 13.5918 64.8721 13.7771 64.8617 13.808C64.8617 13.8286 64.8513 13.8286 64.8202 13.8389C64.7994 13.8389 64.7682 13.8595 64.7371 13.8904C64.706 13.9213 64.6852 13.9522 64.6644 13.9728C64.6333 14.0243 64.6125 14.0552 64.5295 14.0758C64.1143 14.2303 63.4811 14.3848 63.0243 14.4363C62.2769 14.5187 61.5295 14.5392 60.7925 14.5701C60.2631 14.5907 59.7233 14.601 59.1836 14.6422C58.9137 14.6628 58.6334 14.6937 58.3635 14.7246C57.7407 14.7967 57.0867 14.8791 56.4846 14.7864C56.3497 14.7658 56.2251 14.7246 56.0798 14.6937C55.9449 14.6525 55.7995 14.6113 55.6542 14.5907C55.4155 14.5495 55.1559 14.5392 54.8861 14.5392C54.5643 14.5392 54.2425 14.5598 53.9103 14.5701C53.4017 14.5907 52.8722 14.6216 52.4155 14.5804C52.3325 14.5804 52.2494 14.5392 52.1456 14.5084C52.0522 14.4775 51.9484 14.4363 51.8446 14.426C51.5643 14.3951 51.2737 14.3745 51.0038 14.3745C50.7443 14.3745 50.4744 14.3539 50.2148 14.323C49.81 14.2715 49.374 14.1788 48.9692 14.0964L48.637 14.0243C48.4917 13.9934 48.3671 13.9522 48.2322 13.911C48.0557 13.8595 47.8689 13.7977 47.6509 13.7668C47.5263 13.7463 47.4017 13.736 47.2668 13.7257C47.08 13.7051 46.8827 13.6948 46.6959 13.6536C46.5713 13.6227 46.4467 13.5815 46.3222 13.5197C46.1561 13.4476 45.9796 13.3755 45.7928 13.3549C45.7928 13.3549 45.8032 13.3343 45.8135 13.3343L45.8447 13.3549ZM64.1869 48.8441C64.1869 48.8441 64.1558 48.9162 64.1558 48.9677C64.1454 49.153 64.135 49.359 64.1247 49.565C64.1039 49.9563 64.0935 50.358 64.052 50.6875C64.052 50.7596 64.0312 50.8111 64.0209 50.8523C64.0001 50.9347 63.9897 51.0171 63.9793 51.1407C63.9586 51.3673 63.9274 51.5938 63.8963 51.8101C63.8755 51.9028 63.8651 52.0058 63.8548 52.0985C63.8029 52.4589 63.7821 52.8194 63.751 53.1695C63.7302 53.4064 63.7198 53.6433 63.6991 53.8801C63.6679 54.1891 63.6368 54.4363 63.5537 54.7349C63.5434 54.7864 63.533 54.8276 63.533 54.8791C63.533 54.91 63.533 54.9409 63.533 54.9615C63.3461 54.9409 63.2631 55.0542 63.1904 55.1263C63.1593 55.1572 63.1281 55.1984 63.097 55.219C62.9932 55.2807 62.8582 55.3116 62.7233 55.3425C62.6299 55.3631 62.5365 55.3837 62.4534 55.4146C62.3496 55.4558 62.2666 55.5176 62.1939 55.5691C62.1316 55.6206 62.0693 55.6618 62.007 55.6824C61.405 55.8987 60.751 56.0326 60.1178 56.1664C59.578 56.2797 59.0279 56.393 58.4985 56.5578C58.0417 56.702 57.668 56.7844 57.4396 56.805C57.4189 56.805 57.3981 56.805 57.367 56.7844C57.3358 56.7741 57.2943 56.7535 57.2424 56.7535C57.1594 56.7535 57.0556 56.7741 56.9518 56.7947C56.8168 56.8153 56.6611 56.8564 56.5469 56.8461C56.059 56.805 55.5504 56.8461 55.0625 56.8976C54.7719 56.9182 54.4605 56.9491 54.1698 56.9594C53.9311 56.9594 53.7027 56.98 53.4743 56.9903C52.893 57.0212 52.3428 57.0521 51.72 56.9594C51.5124 56.9285 51.4294 56.8873 51.3048 56.8256C51.2529 56.7947 51.1802 56.7638 51.1076 56.7329C50.9415 56.6608 50.7443 56.6093 50.5574 56.5578C50.3706 56.5063 50.1733 56.4548 50.0176 56.393C49.9553 56.3724 49.8619 56.3209 49.7789 56.2694C49.6439 56.1973 49.5194 56.1252 49.4259 56.1046C49.4052 56.1046 49.3637 56.1046 49.3118 56.1046H49.2079C49.1353 56.1046 49.0522 56.1046 49.0107 56.1046C48.8758 56.084 48.6266 56.012 48.4502 55.9605L48.3671 55.9399C48.1907 55.8884 48.0246 55.8163 47.8585 55.7339C47.682 55.6515 47.5159 55.5691 47.3395 55.5382C47.2876 55.5176 46.6751 55.2705 46.5506 55.2087C46.5506 55.1778 46.5298 55.1263 46.4883 55.0851C46.4467 55.0439 46.4052 55.013 46.3637 54.9924C46.3429 54.9821 46.3118 54.9718 46.3014 54.9512C46.2288 54.8791 46.1769 54.6834 46.1561 54.5289L46.1146 54.2406C46.0523 53.7874 45.99 53.324 45.9485 52.8606C45.8654 51.9749 45.8343 51.0686 45.8135 50.1932C45.7928 49.6062 45.7824 48.9986 45.7409 48.4012V48.2159C45.7201 47.9996 45.7097 47.7524 45.689 47.5774C45.6786 47.4744 45.6267 47.392 45.5852 47.3199C45.5644 47.2787 45.5333 47.2478 45.5333 47.2272C45.5333 47.1757 45.5333 47.0315 45.5333 46.9182V46.7741C45.5333 46.6299 45.5333 46.4857 45.554 46.3415C45.8862 46.6608 46.4467 47.0212 46.8412 47.2375C47.6613 47.6803 48.5125 48.0614 49.2806 48.3395C50.0903 48.6278 50.9519 48.7926 51.7823 48.9471C52.1249 49.0089 52.457 49.0707 52.7996 49.1427C52.9657 49.1736 53.1318 49.2148 53.3186 49.2457C53.4639 49.2663 53.5989 49.2972 53.7442 49.3281L54.0037 49.3796C54.502 49.4826 55.021 49.5959 55.54 49.6474C55.9345 49.6886 56.9518 49.7813 57.7614 49.7401C57.8133 49.7401 57.8549 49.6989 57.8756 49.6783C57.8756 49.6783 57.8964 49.6577 57.9068 49.6577H57.9483C58.54 49.6577 59.0901 49.5856 59.6611 49.5135C59.9413 49.4723 60.232 49.4414 60.5226 49.4105C60.668 49.4002 60.8133 49.3796 60.9586 49.359C61.0936 49.3384 61.2181 49.3281 61.3427 49.3075L61.6334 49.2766C62.4638 49.1942 63.1904 49.1221 63.9897 48.8544C64.0312 48.8441 64.1766 48.8029 64.2181 48.8029C64.2181 48.8029 64.2181 48.8338 64.1973 48.8544L64.1869 48.8441ZM56.0694 46.2694C56.0694 46.2694 56.0902 46.2694 56.0902 46.2797H56.0694C55.8826 46.3003 55.6438 46.2797 55.4155 46.2591C55.3117 46.2591 55.2182 46.2385 55.1248 46.2385C55.0314 46.2385 54.938 46.2385 54.8549 46.2385C54.4812 46.2385 54.1594 46.2179 53.8169 46.0326C53.4951 45.8575 53.412 45.6515 53.3082 45.3219C53.2148 45.0336 53.1629 44.7349 53.111 44.4157L53.0902 44.2715C52.9449 43.4373 52.8203 42.4898 53.0695 41.6247C53.0695 41.6762 53.0799 41.738 53.0902 41.7998C53.1006 41.944 53.111 42.0882 53.1525 42.2118C53.3186 42.8709 53.7753 43.8595 54.1387 44.426C54.4916 44.9924 55.4881 45.9811 56.0694 46.2591V46.2694ZM54.7304 40.739C54.7304 40.6567 54.7615 40.5846 54.7926 40.5022C54.8134 40.6052 54.8445 40.7184 54.8653 40.8008C54.8861 40.8935 54.9172 40.9862 54.9172 41.0274C54.938 41.7792 55.104 42.2426 55.3636 42.9327V42.9636C55.3636 42.9636 55.4258 43.1077 55.4674 43.2313C55.5919 43.6227 55.6127 43.6742 55.6334 43.6948C55.7269 43.8183 55.758 43.8389 55.8514 43.9934C55.8722 44.0346 55.9137 44.0758 55.9449 44.117C55.9656 44.1376 55.9968 44.1685 56.0071 44.1891C55.9864 44.1891 55.9656 44.1891 55.9552 44.1788C55.8099 44.1067 55.4466 43.6227 55.3013 43.3858C54.8757 42.6752 54.6473 41.6144 54.72 40.7287L54.7304 40.739ZM56.6507 40.4404C56.7026 40.2859 56.9933 39.7092 57.0556 39.6474C57.0867 39.6268 57.3462 39.4826 57.3877 39.462C57.4293 39.4414 57.5746 39.4105 57.6784 39.3899C57.6784 39.3899 57.6784 39.3899 57.6784 39.4002C57.6265 39.4723 57.5642 39.5959 57.4916 39.7298C57.4085 39.874 57.2943 40.0902 57.2528 40.1211C57.2528 40.1211 57.232 40.1211 57.2217 40.1314C57.2009 40.1314 57.1594 40.152 57.1282 40.1829C57.0971 40.2241 57.0763 40.2962 57.0348 40.4198C57.014 40.4713 56.9933 40.5537 56.9725 40.5846C56.9518 40.5846 56.9102 40.5846 56.8791 40.6361C56.8064 40.7287 56.7753 40.9141 56.7442 41.1098C56.7234 41.2128 56.713 41.3261 56.6923 41.3879C56.6819 41.4291 56.6715 41.4496 56.6611 41.4702C56.6092 41.1201 56.5885 40.667 56.6715 40.4198L56.6507 40.4404ZM65.5675 34.9203C65.4949 35.806 65.3807 36.7123 65.2769 37.5774C65.1316 38.7926 64.9759 40.0387 64.9032 41.2746C64.8409 42.0367 64.7682 42.8194 64.6956 43.5712C64.6229 44.2715 64.5503 44.9924 64.4984 45.6927C64.4984 45.7751 64.4984 45.8472 64.4984 45.9296C64.4984 46.0943 64.4984 46.2385 64.4361 46.393C64.27 46.4136 64.1143 46.4754 63.9586 46.5372C63.8652 46.5681 63.7717 46.6093 63.6783 46.6299C62.9205 46.8461 62.0901 46.9594 61.1662 47.0727C61.2908 47.0006 61.4154 46.8976 61.5399 46.805C61.6853 46.6917 61.841 46.5784 61.9655 46.5063C62.1316 46.4136 62.1835 46.3724 62.1939 46.2797C62.1939 46.2797 62.2769 46.2488 62.3185 46.2179C62.4326 46.1149 62.5157 45.9811 62.5884 45.8575C62.6403 45.7648 62.6922 45.6824 62.7544 45.6206C62.7752 45.6 62.796 45.5897 62.8167 45.5691C62.8582 45.5485 62.9101 45.5073 62.962 45.4455C63.1385 45.2087 63.7925 43.8286 63.8444 43.5197C63.8652 43.3858 63.8859 43.2519 63.8963 43.118C63.9171 42.9841 63.9274 42.8503 63.9482 42.7164C63.969 42.6237 63.9897 42.5207 64.0105 42.4177C64.052 42.2323 64.0935 42.047 64.1039 41.8925C64.1039 41.8204 64.0831 41.7586 64.0728 41.7174C64.0728 41.6968 64.052 41.6865 64.052 41.6659C64.0209 41.1716 63.9274 40.8729 63.7821 40.3786C63.6991 40.1005 63.5434 39.8328 63.3876 39.5753C63.2942 39.4311 63.2112 39.2766 63.1385 39.1222C62.9517 38.7411 62.3081 38.0099 62.0278 37.7318C61.488 37.1963 60.8341 36.7535 60.2216 36.3518C60.1801 36.3209 60.1074 36.2488 60.0659 36.2076C60.0244 36.1561 60.0036 36.1355 59.9829 36.1252C59.9206 36.084 59.1836 35.7854 59.1317 35.7648C59.0071 35.7339 58.841 35.703 58.6853 35.6824C58.5192 35.6618 58.3531 35.6309 58.2286 35.6C58.2286 35.6 58.2182 35.5897 58.2078 35.5794C58.187 35.5588 58.1455 35.5176 58.0936 35.5073C57.9483 35.4867 57.0452 35.6 57.0348 35.6C56.6715 35.6515 56.2355 35.7751 55.8618 35.8781C55.4258 36.0017 54.9795 36.1767 54.5643 36.3415C54.3359 36.4342 54.1075 36.5269 53.8791 36.6093C53.8272 36.6299 53.7546 36.6402 53.6819 36.6505C53.5366 36.6711 53.3913 36.6814 53.3082 36.7844C53.2771 36.8153 53.2667 36.8564 53.2459 36.8976C53.2252 36.8976 53.194 36.9182 53.1629 36.9182C53.0383 36.9491 52.8619 36.9903 52.7165 37.2169C52.6646 37.289 52.6439 37.3405 52.6231 37.3714C52.5816 37.4435 52.5608 37.4744 52.4259 37.5979C52.239 37.7627 51.6993 39.1427 51.637 39.3796C51.6162 39.462 51.5851 39.5547 51.5539 39.6474C51.4605 39.9666 51.3359 40.3683 51.2944 40.6361C51.284 40.7287 51.2944 40.8214 51.2944 40.9141C51.2944 40.9965 51.2944 41.0686 51.2944 41.1407C51.284 41.2849 51.2529 41.4188 51.2218 41.5629C51.1802 41.7792 51.1387 41.9955 51.1387 42.222C51.1387 42.4692 51.1595 42.9533 51.1906 43.2004C51.201 43.2931 51.2218 43.3446 51.2321 43.3755C51.2529 43.427 51.2529 43.4476 51.2321 43.633C51.2114 43.8595 51.3567 44.3436 51.5124 44.8585C51.5435 44.9512 51.5643 45.0439 51.5851 45.1057C51.7823 45.8163 52.021 46.3415 52.3117 46.6917L52.5505 47.0006C52.1871 46.9697 51.8342 46.9285 51.502 46.8153H51.284L50.7858 46.702C49.6958 46.4239 48.772 46.1149 47.9623 45.7648C47.08 45.3837 46.727 45.0027 46.0834 44.3333C46.0834 44.3333 46.0834 44.3127 46.0731 44.3024C46.0731 44.2818 46.0523 44.2406 46.0211 44.22C45.9589 44.1582 45.8447 44.1479 45.7409 44.1273C45.6994 44.1273 45.6578 44.1273 45.6267 44.1067C45.3776 44.0346 45.3879 43.9316 45.3879 43.6845C45.3879 43.6227 45.3879 43.5609 45.3879 43.4888C45.3672 42.5516 45.3153 41.5938 45.2738 40.6567C45.2426 40.0387 45.2115 39.4208 45.1907 38.8029L45.1699 38.4218C45.1077 36.8461 45.035 35.0645 45.1803 33.4888C45.1907 33.3549 45.1803 33.2519 45.1492 33.1695C45.1492 33.118 45.1284 33.0768 45.1284 33.015C45.1284 32.8709 45.1284 32.7164 45.1284 32.5722C45.1284 32.4795 45.1284 32.3971 45.1284 32.3147C45.1596 32.3353 45.1907 32.3662 45.2115 32.3868C45.2945 32.4589 45.3464 32.5001 45.3776 32.5207C45.554 32.6031 45.7097 32.6958 45.8758 32.7885C45.9796 32.8503 46.0834 32.9121 46.1872 32.9739C47.1111 33.4785 48.0765 33.736 49.0938 34.014L49.3533 34.0861C49.5609 34.1376 49.7789 34.2097 49.9865 34.2612C50.5366 34.426 51.118 34.5907 51.6681 34.6834C52.592 34.8482 53.5781 34.8482 54.5331 34.8585C54.9899 34.8585 55.4777 34.8585 55.9345 34.8894C56.1421 34.8894 56.3497 34.9203 56.5469 34.9409C56.8687 34.9718 57.2009 34.9924 57.585 34.9924C57.8652 34.9924 58.1559 34.9512 58.4362 34.9203C58.7476 34.8894 59.059 34.8482 59.3496 34.8482C59.3496 34.8482 59.3704 34.8585 59.3808 34.8688C59.4119 34.8894 59.4535 34.9203 59.5157 34.9203C59.5676 34.9203 59.6299 34.8997 59.7026 34.8688C59.7337 34.8585 59.7856 34.8379 59.796 34.8379C59.8687 34.8379 59.931 34.8379 60.0036 34.8379C60.1386 34.8379 60.2839 34.8482 60.4604 34.8173C60.533 34.7967 60.6264 34.7452 60.7095 34.704C60.7303 34.704 60.7406 34.7246 60.7614 34.7246C60.8237 34.7555 60.886 34.7864 60.9482 34.7864C61.0209 34.7967 61.0936 34.7452 61.1351 34.7143C61.1558 34.7143 61.1766 34.6937 61.187 34.6834C61.2078 34.6834 61.2597 34.6834 61.3116 34.6834C61.3842 34.6834 61.488 34.6834 61.5814 34.6731L61.6645 34.6525C62.1835 34.5495 62.6714 34.4466 63.2216 34.3745C63.3876 34.3539 63.5434 34.3333 63.6991 34.3127C63.9274 34.2818 64.1558 34.2509 64.3946 34.22C64.4361 34.22 64.4672 34.22 64.5087 34.2406C64.5503 34.2612 64.5918 34.2715 64.6437 34.2612C64.789 34.2406 64.9343 34.1479 65.0693 34.0655C65.1316 34.0243 65.1938 33.9934 65.2561 33.9625C65.2977 33.9419 65.4637 33.9007 65.5779 33.8698L65.526 34.8791L65.5675 34.9203ZM66.3046 25.219V25.3528C66.2838 25.6927 66.2838 25.8781 66.2111 26.1973C66.1592 26.4136 66.1592 26.6711 66.1592 26.9285C66.1592 27.0727 66.1592 27.2066 66.1592 27.3199C66.1592 27.3817 66.1385 27.4641 66.1073 27.5465C66.0762 27.6494 66.0554 27.7627 66.0554 27.8348C66.0554 28.3909 66.0035 28.978 65.9412 29.5341V29.5135C65.9101 29.8843 65.879 30.2756 65.8582 30.6464C65.8582 30.7184 65.8582 30.8214 65.8582 30.9347C65.8582 31.0789 65.879 31.254 65.8582 31.3364C65.8271 31.4085 65.4845 31.4908 65.3392 31.5217C65.2354 31.5423 65.1316 31.5732 65.0693 31.5938C63.7198 32.0985 62.5884 32.2632 61.0105 32.4589C60.7925 32.4898 60.5745 32.5207 60.3669 32.5619C59.9413 32.634 59.5365 32.7061 59.0798 32.6958C58.8099 32.6958 58.54 32.7164 58.2805 32.7576C58.0625 32.7782 57.8237 32.8091 57.5954 32.8194C57.0348 32.8297 56.4639 32.8194 55.9137 32.7988C55.5504 32.7885 55.1871 32.7782 54.8342 32.7782H54.7615C54.5954 32.7782 54.4189 32.7782 54.2425 32.7782C53.9311 32.7782 53.6093 32.7988 53.3082 32.7782C53.1214 32.7679 52.9242 32.7576 52.7269 32.7576C52.2598 32.737 51.7823 32.7267 51.3463 32.6237C51.1179 32.5722 50.9 32.5001 50.6716 32.4383C50.4121 32.3662 50.1318 32.2838 49.8515 32.222C49.3844 32.1191 48.9069 31.9852 48.4502 31.8616L48.0661 31.7586C47.7858 31.6865 47.6094 31.6041 47.381 31.5114L47.0696 31.3776C46.7374 31.2437 45.8654 30.8832 45.7305 30.7184C45.6994 30.6772 45.689 30.667 45.6786 30.6464C45.6578 30.5949 45.6267 30.564 45.5333 30.4816C45.5125 30.4713 45.5021 30.4301 45.4814 30.4095C45.4606 30.3683 45.4295 30.3168 45.3879 30.2859C45.3257 30.2447 45.253 30.2344 45.2011 30.2447C45.1803 30.2447 45.1388 30.2447 45.1284 30.2241C45.0558 30.0284 45.0661 29.6371 45.0765 29.3281C45.0765 29.2251 45.0765 29.1325 45.0765 29.0501C45.0765 28.5969 45.0765 28.1232 45.0765 27.6494C45.0765 27.1345 45.0765 26.6093 45.0765 26.0943C45.0765 25.5691 45.0558 25.0439 45.0246 24.5186C45.0246 24.4569 45.0142 24.4054 45.0039 24.3539C44.9831 24.2509 44.9727 24.1479 45.0039 24.0449C45.0973 24.0449 45.1907 24.0655 45.2945 24.0964C45.3568 24.117 45.4191 24.1376 45.4917 24.1479C45.772 24.1994 46.0419 24.2715 46.3118 24.3333C46.6647 24.4157 47.028 24.5084 47.3914 24.5598C47.599 24.5907 47.8481 24.601 48.0869 24.6113C48.3567 24.6216 48.6163 24.6319 48.8135 24.6731C49.0315 24.7143 49.1457 24.7349 49.3948 24.7658C49.6439 24.7967 49.8827 24.8585 50.1422 24.9306C50.4328 25.013 50.7443 25.0954 51.0349 25.116C51.4916 25.1572 51.9588 25.2396 52.4155 25.3116C52.9864 25.4043 53.5781 25.497 54.1698 25.5279C54.2321 25.5279 54.2944 25.5176 54.3359 25.5073C54.3567 25.5073 54.367 25.5073 54.3774 25.5073C54.6473 25.5176 54.9276 25.5588 55.1975 25.6C55.5193 25.6515 55.8514 25.6927 56.1732 25.6927C56.8791 25.6927 57.5954 25.6618 58.2908 25.6206C58.5088 25.6103 58.7268 25.6 58.9448 25.5897C59.0694 25.5897 59.1939 25.5897 59.3289 25.5897C59.495 25.5897 59.6611 25.6 59.8272 25.5897C60.1074 25.5691 60.3877 25.5176 60.6576 25.4661C60.9275 25.4146 61.2078 25.3734 61.4776 25.3425C61.7372 25.3219 62.007 25.2705 62.2769 25.219C62.6818 25.1469 63.1074 25.0645 63.5018 25.0748C63.834 25.0748 64.2181 24.9924 64.5814 24.91C64.706 24.8791 64.8305 24.8482 64.9551 24.8276C65.0278 24.8173 65.1004 24.807 65.1835 24.7967C65.2769 24.7967 65.3703 24.7761 65.4534 24.7658C65.5675 24.7452 65.6817 24.704 65.7855 24.6628C65.9931 24.5907 66.1904 24.5289 66.398 24.5495C66.3461 24.7761 66.3357 25.0027 66.3253 25.219H66.3046ZM67.7682 21.9234C67.7682 21.9234 67.6852 21.9543 67.6644 21.9749L67.6229 21.9955C67.4256 22.0985 67.353 22.1397 67.1142 22.2015C66.7821 22.2838 66.4499 22.3559 66.1489 22.4074L65.8374 22.4589C65.3496 22.5413 64.8305 22.6134 64.3219 22.7473C63.8859 22.8606 63.616 22.9327 63.18 22.9739C62.5365 23.0356 61.8929 23.1386 61.27 23.2416C60.6991 23.3343 60.1178 23.427 59.5365 23.4888C59.142 23.53 58.7372 23.53 58.3531 23.5197C58.021 23.5197 57.668 23.5197 57.3358 23.5403C57.0244 23.5609 56.7442 23.5815 56.4743 23.5918C56.3912 23.5918 56.2874 23.6021 56.1732 23.6124C56.0383 23.633 55.893 23.6433 55.8203 23.633C55.758 23.633 55.675 23.6124 55.5815 23.5815C55.4881 23.5609 55.3843 23.53 55.3117 23.53C55.1144 23.5094 54.9068 23.4991 54.7096 23.4785C54.2528 23.4373 53.7753 23.3961 53.3082 23.3755C52.7996 23.3549 52.4155 23.3137 52.1041 23.2622C51.9588 23.2416 51.7927 23.1901 51.6266 23.1489C51.4086 23.0974 51.1906 23.0356 51.0038 23.015H50.9311C50.9311 23.015 50.8688 23.015 50.8377 23.015C50.7962 23.015 50.765 23.015 50.6404 22.9944C49.9034 22.7885 49.2183 22.7267 48.4917 22.6443C48.1699 22.6134 47.8377 22.5722 47.5056 22.531C46.6232 22.4074 45.6059 22.2015 44.4745 21.9028C44.163 21.8204 43.862 21.6968 43.561 21.5732C43.3637 21.4908 43.1561 21.4085 42.9589 21.3364C42.9485 21.3364 42.9174 21.3055 42.8966 21.2849C42.8759 21.2643 42.8447 21.2334 42.8032 21.2128C42.8032 21.1098 42.7824 21.0068 42.7617 20.9141C42.7513 20.8626 42.7305 20.8008 42.7409 20.7699C42.7409 20.7184 42.7513 20.6464 42.7617 20.5846C42.7721 20.5125 42.7824 20.4404 42.7928 20.358V20.2756C42.8655 19.4929 42.9382 18.6793 43.2703 17.9275C43.3118 17.8348 43.3638 17.7833 43.4157 17.7215C43.4572 17.67 43.4987 17.6288 43.5195 17.5774C43.5402 17.5362 43.5402 17.495 43.5402 17.4641C43.5714 17.4538 43.6129 17.4435 43.644 17.4126C43.8309 17.2478 43.8309 17.2478 44.0073 17.1654L44.08 17.1242C44.08 17.1242 44.1734 17.0727 44.2149 17.0418C44.2876 16.9903 44.3395 16.9594 44.4226 16.9697C44.4226 16.9697 44.4433 16.9697 44.4433 16.98C44.4745 16.9903 44.5264 17.0109 44.5783 17.0109C44.6509 17.0109 45.0454 16.9182 45.1388 16.8256C45.1596 16.805 45.1699 16.7741 45.1699 16.7432C45.1699 16.7432 45.1907 16.7432 45.1907 16.7329C45.253 16.702 45.336 16.6608 45.3879 16.5681C45.4398 16.4754 45.4295 16.3827 45.4295 16.2797C45.4295 16.1973 45.4295 16.1046 45.4502 16.0429L45.471 16.0017L45.4502 15.9502C45.3776 15.7854 45.4087 15.6412 45.4398 15.4867C45.4606 15.4043 45.471 15.3219 45.471 15.2293V14.8997C45.471 14.8997 45.5436 14.8997 45.7513 14.9512C46.4675 15.1675 47.163 15.3528 47.9831 15.5382L48.3256 15.6206C49.1457 15.806 50.0072 16.012 50.8481 16.1149C51.0453 16.1355 51.2529 16.1458 51.4501 16.1664C51.6681 16.1767 51.9069 16.187 52.1249 16.2179C52.2287 16.2282 52.3844 16.2694 52.5193 16.3003C52.7269 16.3518 52.9242 16.393 53.0591 16.4033C53.3913 16.4033 53.7234 16.4033 54.0452 16.3827C54.4397 16.3621 54.8549 16.3518 55.2598 16.3827C55.5296 16.4033 55.8099 16.4548 56.0694 16.5166C56.2978 16.5681 56.5262 16.6196 56.7442 16.6402C57.1282 16.6814 57.6784 16.6608 58.0936 16.6402C58.4673 16.6299 58.8514 16.5887 59.2251 16.5475C59.4119 16.5269 59.5988 16.5063 59.7856 16.4857C60.3566 16.4342 61.0001 16.3827 61.5711 16.3827C61.6956 16.3827 61.8098 16.3724 61.9032 16.3518C61.9655 16.3518 62.0278 16.3312 62.0901 16.3312C62.3081 16.3209 62.5261 16.3106 62.7337 16.3106C63.2942 16.29 63.8755 16.2797 64.4465 16.1664C64.5295 16.1458 64.6125 16.1149 64.706 16.0943C64.8513 16.0429 64.9759 16.0017 65.1212 16.012V16.2591C65.1212 16.3724 65.1212 16.4857 65.1212 16.599C65.1004 17.0933 65.0589 17.4435 65.007 17.6288C64.9966 17.6803 64.9655 17.7318 64.9447 17.7936C64.9136 17.8657 64.8721 17.9378 64.8617 18.0099C64.8305 18.2159 64.8617 18.5145 64.9862 18.7308C64.9862 18.7308 65.2665 19.1427 65.3184 19.1839C65.3496 19.2045 65.7544 19.3693 65.7959 19.3796C66.045 19.4105 66.3149 19.3384 66.4914 19.1942C66.5848 19.1222 66.6471 19.0192 66.6886 18.9162C66.7198 18.9368 66.7613 18.978 66.8236 18.9986C66.8651 19.0192 66.917 19.0192 66.9481 19.0192C66.9689 19.0192 67 19.0192 67.0104 19.0192C67.0416 19.0398 67.0935 19.1633 67.1142 19.2148C67.1558 19.3075 67.1765 19.3487 67.2077 19.3796C67.2388 19.4002 67.2699 19.4208 67.3115 19.4208C67.4464 19.6062 67.654 20.1314 67.7163 20.3477C67.8097 20.6361 67.8409 21.2231 67.872 21.5629V21.635C67.872 21.635 67.8928 21.7174 67.9135 21.7483C67.9135 21.7689 67.9343 21.7895 67.9343 21.7998C67.9135 21.8616 67.8097 21.9028 67.7163 21.9337L67.7682 21.9234Z" fill="#AD863D"/>
<path d="M44.9024 61.749C44.8819 61.6976 44.8202 61.5845 44.7689 61.4612C44.7175 61.3482 44.6353 61.1838 44.625 61.153C44.6353 61.1222 44.6661 61.0605 44.625 60.9988C44.6045 60.968 44.5737 60.9372 44.5531 60.9269C44.5428 60.9269 44.5326 60.9064 44.5223 60.9064C44.5018 60.8858 44.5018 60.855 44.4915 60.8344C44.4607 60.7625 44.4196 60.67 44.2963 60.6186C44.2963 60.5467 44.2655 60.4953 44.2449 60.444C44.2141 60.372 44.1936 60.3412 44.2141 60.2795L44.2963 60.0432L44.1114 60.1357C44.0908 60.0638 44.0497 60.0124 44.0189 59.9713C43.9984 59.9507 43.9881 59.9199 43.9778 59.8994C43.9265 59.7863 43.9059 59.6733 43.8854 59.5397C43.8648 59.4164 43.8032 59.365 43.7415 59.3342C43.6388 58.7999 43.4128 58.3991 43.1971 58.0189C43.043 57.7415 42.8786 57.4538 42.7656 57.1249C42.7245 57.0016 42.5704 56.5495 42.4266 56.2412C42.3444 56.0563 42.252 55.8508 42.1492 55.6453C41.8205 54.9363 41.4507 54.145 41.3068 53.5388C41.2657 53.3744 41.1425 53.1483 41.0089 52.9222C40.937 52.7887 40.8651 52.6654 40.824 52.5729C40.7521 52.4187 40.7007 52.2338 40.6494 52.0591C40.5877 51.8433 40.5261 51.6275 40.4336 51.4426C40.1562 50.8774 39.92 50.2711 39.694 49.6854C39.4269 48.997 39.1495 48.2777 38.8105 47.6406C38.7591 47.5481 38.718 47.4043 38.6666 47.2707C38.6461 47.1987 38.6153 47.1268 38.5947 47.0549C38.0194 45.5649 37.3414 44.1264 36.7456 42.9138C36.6531 42.7186 36.5299 42.5336 36.4271 42.3384C36.3141 42.1534 36.2114 41.9788 36.1292 41.8041C35.9443 41.4239 35.7799 41.0231 35.6258 40.6429C35.5436 40.4374 35.4615 40.2422 35.369 40.0367C35.3484 39.9853 35.3176 39.9134 35.2971 39.8517C35.2457 39.7284 35.2046 39.5948 35.1533 39.5229C35.1019 39.451 35.0711 39.4099 35.0403 39.3893C35.0197 39.3688 35.0094 39.3585 34.9786 39.2352C34.9478 39.0913 34.8656 38.9166 34.7834 38.7625C34.7218 38.6289 34.6499 38.4953 34.6396 38.4234C34.6191 38.2282 34.5985 38.1254 34.5163 37.9096L34.465 37.7863C34.3828 37.5705 34.2698 37.2828 34.239 37.0979C34.2184 36.9746 34.2184 36.7382 34.239 36.6971C34.239 36.6971 34.2698 36.6766 34.28 36.656C34.3109 36.6355 34.3417 36.6046 34.352 36.5841C34.5061 36.3991 34.6807 36.2142 34.8656 36.0189C35.2457 35.6182 35.6361 35.2072 35.8929 34.7448C35.9648 34.6214 36.0265 34.4981 36.0881 34.3748C36.1497 34.2618 36.2114 34.1488 36.2628 34.046C36.4066 33.7891 36.4374 33.5631 36.4785 33.3576C36.5093 33.1931 36.5401 33.0287 36.6223 32.8746C36.7148 32.6896 36.725 32.6794 36.7456 32.5766C36.7456 32.5458 36.7456 32.4944 36.7661 32.4122C36.797 32.217 36.8894 31.7854 36.9716 31.5799C36.9716 31.5593 37.0024 31.5285 37.023 31.5079C37.0641 31.4566 37.1051 31.4052 37.1154 31.3333C37.1257 31.2613 37.1154 31.1894 37.0846 31.1483C37.0743 31.1175 37.0641 31.0969 37.0641 31.0764C37.0641 31.025 37.0846 30.9736 37.1154 30.9222C37.1462 30.8606 37.1668 30.7887 37.1668 30.727C37.1668 30.3879 37.2284 30.0899 37.2901 29.7714C37.3106 29.6481 37.3414 29.5145 37.362 29.3809C37.3928 29.2062 37.3825 29.0726 37.3722 28.9288C37.3722 28.8568 37.3722 28.7849 37.3722 28.7027C37.3722 28.5897 37.3722 28.4664 37.3722 28.3431C37.3722 28.0759 37.3722 27.7985 37.3722 27.5827C37.3722 27.408 37.3517 27.1408 37.3209 26.9045C37.3106 26.8017 37.249 26.7298 37.2079 26.6682C37.1976 26.6476 37.1771 26.627 37.1771 26.6168C37.136 26.4729 37.1154 26.3496 37.1051 26.2058C37.0743 26.0105 37.0538 25.805 36.9613 25.5584C36.9408 25.4967 36.9202 25.4454 36.8997 25.394C36.8483 25.2501 36.8072 25.1371 36.7148 24.9624C36.6634 24.8802 36.6429 24.798 36.612 24.7158C36.5915 24.6439 36.5607 24.5719 36.5299 24.5C36.4682 24.3664 36.3758 24.2637 36.2936 24.1609C36.2217 24.0787 36.1497 23.9965 36.1087 23.904C36.0881 23.8732 36.0778 23.8115 36.0573 23.7602C36.0265 23.6574 36.0059 23.606 35.9751 23.5649L35.7388 23.308C35.2354 22.784 34.7321 22.2497 34.0951 21.8386C34.054 21.8181 32.7699 21.2324 32.7699 21.2427L32.0919 20.9858C32.0919 20.9858 31.8145 20.8727 31.794 20.8522C31.7631 20.8214 31.7221 20.7905 31.6707 20.77C31.3728 20.6569 30.2633 20.359 29.9345 20.3281C29.8524 20.3281 29.7599 20.3487 29.6777 20.3898C29.6366 20.4103 29.5647 20.4309 29.5544 20.4309C29.5442 20.4309 29.5236 20.4206 29.5031 20.4103C29.4414 20.3692 29.3592 20.3178 29.2154 20.3384C29.123 20.3487 29.0716 20.4001 29.0408 20.4412C29.0408 20.4412 29.01 20.4412 28.9997 20.4206C28.9689 20.4001 28.9278 20.3795 28.8661 20.3898C28.8148 20.3898 28.7737 20.4206 28.7429 20.4514C28.7326 20.4514 28.712 20.472 28.7223 20.472C28.7018 20.472 28.6401 20.4514 28.599 20.4309C28.5374 20.4103 28.4758 20.3795 28.4244 20.3795C28.3525 20.3795 28.3011 20.4001 28.26 20.4103C28.2292 20.4206 28.1984 20.4309 28.1881 20.4309C28.0854 20.4309 27.9827 20.4103 27.8902 20.4001C27.6026 20.359 27.3149 20.3281 27.0067 20.4103C26.9143 20.4309 26.7396 20.4309 26.5958 20.4309C26.4828 20.4309 26.3801 20.4309 26.2876 20.4309C25.7945 20.4823 25.2295 20.6672 24.7775 20.8111L24.6953 20.8316C24.2638 20.9755 23.8221 21.1193 23.4317 21.3249C23.1749 21.4584 22.918 21.5817 22.6818 21.6742C22.3838 21.7873 22.0448 21.9722 21.7572 22.1264L21.6544 22.1777C21.5517 22.2291 21.449 22.2805 21.3463 22.3216C21.2641 22.3524 21.1819 22.3935 21.11 22.4346C21.0894 22.4346 21.0792 22.4552 21.0586 22.4654L19.682 23.3697C19.682 23.3697 19.6307 23.3902 19.6101 23.4005C19.5382 23.4416 19.4971 23.4622 19.4663 23.4827C19.3327 23.6163 19.1889 23.7499 19.0451 23.8732C18.8602 24.0376 18.665 24.2123 18.5006 24.3973C18.3876 24.5206 18.2746 24.6439 18.1616 24.7672C17.9459 25.0035 17.7096 25.2398 17.5349 25.4762C17.5144 25.507 17.4836 25.5481 17.463 25.5995C17.4425 25.6406 17.4219 25.6817 17.3911 25.7125L17.3706 25.7331L16.6926 26.8942C16.6926 26.8942 16.672 26.9456 16.6515 26.9764C16.6309 27.0175 16.6104 27.0586 16.6001 27.0997C16.4665 27.5519 16.3022 28.0759 16.1275 28.4869L16.107 28.528C16.0556 28.6411 16.0145 28.7335 16.0043 28.7849C15.994 28.8363 16.0043 28.898 16.0145 28.9493C16.0145 28.9699 16.0145 30.2338 16.0145 30.2543L16.1892 31.734C16.1892 31.734 16.2816 32.032 16.2816 32.0731C16.2816 32.2683 16.2816 32.3403 16.3535 32.5458C16.4563 32.926 16.5795 33.2137 16.7439 33.5528C16.8364 33.7377 16.9288 33.8816 17.0316 34.0255C17.0932 34.1179 17.1548 34.2104 17.2165 34.3132C17.3603 34.5701 17.4528 34.7037 17.5863 34.8886L17.7096 35.053C17.7507 35.1044 17.802 35.2072 17.8637 35.3099C18.0075 35.5565 18.1 35.7209 18.1821 35.7929C18.2438 35.8442 18.326 35.8751 18.3979 35.9059C18.4492 35.9264 18.4903 35.947 18.5212 35.9573C18.5212 35.9573 18.5314 35.9778 18.5417 35.9881C18.5623 36.0189 18.5828 36.0703 18.6136 36.1011C19.004 36.4711 19.569 36.7074 20.1135 36.9437C20.3498 37.0362 20.5655 37.139 20.7607 37.2314C20.7915 37.252 20.8429 37.2931 20.9045 37.3445C20.997 37.4267 21.11 37.5294 21.223 37.5808C21.4387 37.6836 21.6544 37.7966 21.8702 37.8994C22.2195 38.074 22.579 38.2487 22.9283 38.4131C23.1029 38.4953 23.2981 38.557 23.4728 38.6289C23.7193 38.7111 23.9453 38.7933 24.1405 38.9064C24.1508 38.9064 24.1713 38.9372 24.1919 38.9577C24.233 39.0091 24.2741 39.0605 24.346 39.081C25.0857 39.3071 26.1849 39.4099 26.9143 39.3379C27.0375 39.3277 27.1403 39.3071 27.243 39.2866C27.4176 39.2557 27.582 39.2249 27.8183 39.2352C27.9107 39.2352 27.9827 39.2352 28.0546 39.2352H28.2292C28.3011 39.2352 28.6401 39.1735 28.6401 39.1735C28.6915 39.1735 28.7429 39.1427 28.8045 39.1221C28.8661 39.1016 28.9278 39.0708 28.9791 39.0708C28.9997 39.1427 29.0202 39.2146 29.0511 39.2763C29.349 39.8517 29.7291 40.5916 30.0475 41.3622C30.14 41.578 30.2222 41.8041 30.3146 42.0301C30.6126 42.77 30.9208 43.5509 31.3009 44.2291C31.8248 45.1745 32.2665 46.3356 32.6569 47.3529L32.7494 47.5789C33.0062 48.2366 33.3041 48.9045 33.602 49.5519C33.9821 50.3842 34.3828 51.2473 34.6602 52.1002C34.7321 52.3365 34.8245 52.5523 34.917 52.7681C35.0197 53.025 35.1327 53.2819 35.2149 53.5799C35.2354 53.6621 35.3074 53.7751 35.3793 53.8779C35.4306 53.9601 35.482 54.0423 35.5128 54.1142C35.595 54.33 35.6772 54.5355 35.7696 54.7513C35.9957 55.2959 36.2217 55.8611 36.386 56.4262C36.4066 56.5084 36.4888 56.6523 36.6223 56.8783C36.7353 57.0736 36.8586 57.2894 36.91 57.4229C37.0538 57.7929 37.2181 58.0703 37.3825 58.3683C37.4544 58.4916 37.5161 58.6046 37.588 58.7382C37.7113 58.954 37.8037 59.1698 37.8962 59.3856C38.0092 59.6425 38.1222 59.9096 38.2865 60.1768C38.3893 60.3515 38.4201 60.4953 38.4509 60.6597C38.4715 60.742 38.4817 60.8344 38.5126 60.9372C38.5536 61.0708 38.6358 61.2249 38.7283 61.3893C38.8516 61.6154 38.9851 61.862 38.9954 62.0367V62.0572C38.9851 62.0881 38.9646 62.1292 38.9748 62.1805C38.9954 62.2627 39.0673 62.3449 39.2419 62.5196C39.4063 62.6943 39.6426 62.9204 39.7145 63.1259C39.7556 63.2286 39.7351 63.3314 39.7248 63.4136C39.7248 63.465 39.7042 63.5164 39.7248 63.5575C39.7351 63.5986 39.8891 63.8041 39.8891 63.8143C39.9405 63.8657 39.9816 63.8863 40.0432 63.9171C40.0638 63.9582 40.0843 64.0199 40.1665 64.0815C40.2487 64.1432 40.7932 64.3281 40.9986 64.3281C41.0192 64.3281 41.0295 64.3281 41.05 64.3281C41.0911 64.3179 41.1219 64.287 41.1425 64.2665C41.163 64.2459 41.1733 64.2356 41.1938 64.2356C41.2863 64.2254 41.3582 64.2356 41.4507 64.2562C41.5328 64.2767 41.615 64.2973 41.6972 64.287C41.9027 64.2665 42.8786 63.8349 43.043 63.691C43.0738 63.6705 43.0841 63.6397 43.0841 63.5986C43.0943 63.5986 43.1046 63.5986 43.1149 63.5883C43.1868 63.5575 43.2998 63.5164 43.3717 63.4444C43.4231 63.393 43.4642 63.3211 43.5053 63.2697C43.5258 63.2492 43.5361 63.2184 43.5258 63.2286C43.5566 63.2081 43.834 63.1259 43.8546 63.1156C43.8546 63.1156 43.8854 63.1156 43.8956 63.1362C43.947 63.1567 44.0189 63.1978 44.1114 63.167L44.1833 63.1464V63.0129C44.2552 62.9923 44.3168 62.9512 44.3682 62.9204C44.399 62.8998 44.4298 62.8793 44.4401 62.8793H44.5018C44.5018 62.8793 44.6045 62.8793 44.6456 62.8484C44.6867 62.8176 44.738 62.684 44.7689 62.5813H44.964L44.9024 62.3038L44.9949 62.2525V62.1805C44.9846 62.1189 44.9949 62.0675 44.9949 62.0161C44.9949 61.9339 45.0154 61.8312 44.9743 61.7079L44.9024 61.749ZM30.2222 36.6971C28.9483 37.2314 27.5204 37.4986 25.9794 37.4781C25.4452 37.4781 24.9829 37.365 24.4693 37.2417C24.1508 37.1595 23.8837 37.0773 23.6269 36.9437C23.3803 36.8204 23.1338 36.6868 22.8872 36.5635C22.5277 36.3786 22.1476 36.1936 21.788 35.9984C21.6647 35.9367 21.449 35.834 21.1819 35.7209C20.8018 35.5565 20.2265 35.2996 20.134 35.2072C20.021 35.0838 19.9491 35.0325 19.8567 34.9811C19.8053 34.9503 19.7539 34.9194 19.6923 34.8681C19.569 34.7653 19.1786 34.3851 19.1067 34.2824H19.1273C18.7266 33.6864 18.3876 32.9465 18.213 32.2478C17.689 30.1516 18.1513 28.0554 19.4971 26.4729C19.9491 25.9386 20.8018 25.1474 21.3771 24.8083C21.4182 24.7877 21.5414 24.7363 21.6544 24.685C21.9421 24.5617 22.0345 24.5206 22.0756 24.4692C22.1476 24.3973 22.8153 23.8526 22.8667 23.8115C23.0413 23.7807 23.2057 23.678 23.37 23.5752C23.4214 23.5444 23.4625 23.5238 23.5036 23.493C24.346 23.0203 25.0035 22.7737 26 22.4654C26.0513 22.4552 26.0719 22.4243 26.0924 22.4038C26.113 22.3832 26.1232 22.3832 26.1438 22.373H26.1643C26.2157 22.373 26.2671 22.3935 26.3287 22.4243C26.3903 22.4449 26.452 22.4757 26.5136 22.486C26.791 22.5168 27.1197 22.4346 27.4382 22.3524C27.6847 22.2908 27.9107 22.2291 28.1059 22.2291C28.2395 22.2291 28.4141 22.2599 28.5785 22.2908C28.671 22.3113 28.7737 22.3216 28.8559 22.3319C28.9689 22.3421 29.1538 22.3319 29.3284 22.3319C29.4209 22.3319 29.5133 22.3319 29.575 22.3319C29.688 22.3319 29.7702 22.3113 29.8215 22.2908H29.8318C29.9243 22.301 30.1708 22.3421 30.253 22.3935C30.253 22.4141 30.253 22.4654 30.2941 22.4963L30.3455 22.5374H30.4276C30.6434 22.4449 30.9413 22.5065 31.1981 22.5579L31.3317 22.5785C31.8042 22.6607 32.3179 22.9484 32.8007 23.195C32.8624 23.2258 33.0165 23.3389 33.1295 23.4211C33.3041 23.5547 33.3349 23.5649 33.3657 23.5752C33.4377 23.5958 33.489 23.606 33.5198 23.606C33.5678 23.6129 33.626 23.6745 33.6945 23.791C33.7869 23.9348 33.8897 24.0376 33.9821 24.1404C34.0643 24.2328 34.1465 24.315 34.2287 24.4281L34.2595 24.4692C34.5574 24.9213 34.8964 25.4248 34.9786 25.9489L34.9992 26.0824C35.0197 26.2469 35.0505 26.3804 35.0916 26.5551C35.2252 27.0381 35.2663 27.4491 35.2354 27.8909C35.2354 27.9731 35.2149 28.0451 35.2149 28.117C35.1944 28.2609 35.1841 28.3842 35.1841 28.5691C35.1841 29.2781 35.0505 29.9152 34.9067 30.6037L34.8862 30.727C34.8348 30.9633 34.7937 31.1997 34.7218 31.3949C34.6396 31.6313 34.578 31.8573 34.5266 32.0834C34.4958 32.217 34.465 32.3505 34.4239 32.4841C34.4239 32.5252 34.352 32.6074 34.3109 32.6691C34.2287 32.7924 34.1465 32.9157 34.1362 33.0185C34.1362 33.0596 34.1465 33.0904 34.1568 33.1212C34.167 33.152 34.1773 33.1726 34.1773 33.1931C34.1465 33.2548 33.7767 33.8919 33.7253 33.9433C33.6534 34.0357 33.5301 34.1488 33.4171 34.2515C33.3144 34.344 33.2219 34.4365 33.15 34.5187C33.0884 34.5906 33.0473 34.642 33.0165 34.6831C32.9445 34.7653 32.9137 34.8064 32.7494 34.9297C32.585 35.053 32.4206 35.2072 32.2665 35.3613C32.0611 35.5565 31.8453 35.762 31.609 35.9059C31.5885 35.9162 31.5474 35.9264 31.5166 35.9367C31.4652 35.947 31.4241 35.9573 31.383 35.9881C31.342 36.0189 31.3214 36.06 31.3009 36.0909C31.2803 36.1217 31.27 36.1422 31.2495 36.1628C31.0646 36.2964 30.4687 36.5944 30.2325 36.6868L30.2222 36.6971ZM42.2828 61.8825H42.2725C42.2725 61.8825 42.293 61.9442 42.293 61.9545C42.293 61.9545 42.2725 61.975 42.2622 61.9853C42.2417 62.0058 42.2006 62.0367 42.18 62.0778C42.1595 62.1086 42.1492 62.1497 42.1389 62.1703C42.1389 62.2011 42.1184 62.2216 42.1184 62.2422C42.0876 62.273 41.8513 62.4682 41.8308 62.4785C41.7794 62.4888 41.5431 62.4888 41.502 62.4785C41.4198 62.4271 41.2144 62.0058 41.1938 61.8723C41.1938 61.8312 41.1938 61.7798 41.1938 61.7284C41.1938 61.6565 41.1938 61.5845 41.1836 61.5229C41.163 61.4304 41.0808 61.3996 41.0295 61.379C41.0192 61.379 40.9986 61.3688 40.9986 61.3585C40.9575 61.3071 40.937 61.2352 40.9062 61.1632C40.8548 61.0399 40.8035 60.9064 40.7007 60.8036C40.5158 60.6289 40.0843 59.663 39.9919 59.3342C39.9919 59.3136 39.9919 59.2725 39.9919 59.2417C39.9919 59.1698 39.9919 59.0979 39.9405 59.067C39.7967 58.954 39.7453 58.8204 39.6734 58.656C39.6426 58.5841 39.6118 58.5224 39.581 58.4505C38.6872 56.7139 37.9475 54.926 37.2284 53.21C37.1976 53.1278 37.1462 53.0353 37.1051 52.9428C37.023 52.7784 36.9408 52.6037 36.8997 52.4496V52.3571C36.8997 52.2749 36.8997 52.2132 36.8483 52.1824C36.7559 52.1002 36.6326 51.7919 36.5504 51.607C36.0881 50.4869 35.595 49.3361 35.1122 48.2366L34.6602 47.209C34.5677 46.983 34.4444 46.7363 34.3211 46.4795C34.0849 45.9862 33.828 45.4725 33.7048 45.0409C33.6739 44.9381 33.6328 44.8456 33.5815 44.7429C33.5609 44.6915 33.5301 44.6299 33.4993 44.5785C33.376 44.2908 33.1808 43.9517 32.9754 43.5817C32.6877 43.068 32.3898 42.5336 32.2871 42.1534C32.0302 41.2697 31.3625 39.9339 30.8899 39.2044C30.8694 39.1632 30.818 39.1016 30.7564 39.0399C30.6947 38.968 30.5715 38.8447 30.5612 38.7831C30.5715 38.7831 30.6023 38.7728 30.6639 38.7831C30.705 38.7831 30.7564 38.7831 30.8078 38.7831C31.0029 38.742 31.1776 38.6392 31.342 38.5467C31.4344 38.4953 31.5269 38.4337 31.609 38.4029C31.7015 38.3618 31.794 38.3309 31.8864 38.2898C32.0302 38.2282 32.1843 38.1665 32.3282 38.0946C32.3693 38.074 32.4001 38.0432 32.4206 38.0124C32.4206 38.0124 32.4206 38.0124 32.4206 38.0021C32.4309 38.0946 32.4617 38.1973 32.4823 38.2693C32.6055 38.6803 32.7288 38.9475 32.8829 39.2763C32.924 39.3585 32.9651 39.4407 33.0062 39.5332C33.15 39.8414 33.2733 40.16 33.3966 40.4785C33.5815 40.9512 33.7767 41.4342 34.0129 41.876C34.239 42.2767 34.4341 42.7289 34.6293 43.1604C34.8245 43.6023 35.03 44.0544 35.2663 44.4757C35.3895 44.7018 35.482 44.9073 35.5745 45.1436L35.6669 45.38C35.6977 45.4519 35.7696 45.5649 35.8313 45.6677C35.8724 45.7293 35.934 45.8218 35.9443 45.8526C35.9443 45.8835 35.9443 45.9246 35.9443 45.9657C35.9443 46.0273 35.9443 46.0993 35.9648 46.1815C35.9854 46.2637 36.0573 46.3356 36.1189 46.4178C36.1703 46.4795 36.2114 46.5411 36.2422 46.5822C36.3141 46.7261 36.3552 46.8905 36.3963 47.0652C36.4271 47.1987 36.4682 47.3426 36.5196 47.4659C36.5709 47.5995 36.6634 47.7536 36.7559 47.9078C36.8483 48.0619 36.9408 48.2263 36.9921 48.3599C37.0127 48.401 37.023 48.4626 37.0332 48.5346C37.0538 48.6476 37.0743 48.7709 37.136 48.8942C37.3312 49.295 37.6085 49.9115 37.7113 50.3636C37.7934 50.6822 37.9167 50.9493 38.0605 51.2268C38.1325 51.3706 38.2044 51.5042 38.266 51.6583C38.3071 51.7611 38.3482 51.8741 38.379 51.9872C38.4304 52.1618 38.492 52.3365 38.5742 52.4907L38.6256 52.5729C38.6769 52.6654 38.8207 52.912 38.8413 52.9531C38.8618 53.0147 38.8618 53.1072 38.8721 53.1894C38.8721 53.2922 38.8927 53.3949 38.9235 53.4771C38.9543 53.5696 39.0159 53.6518 39.0878 53.734C39.1495 53.8162 39.2111 53.8984 39.2317 53.9703C39.2317 54.0012 39.2317 54.0423 39.2419 54.0731C39.2419 54.1348 39.2419 54.217 39.3036 54.2581C39.3241 54.2786 39.3447 54.2786 39.3652 54.2889C39.4371 54.5458 39.5501 54.7821 39.6631 55.0082C39.7248 55.1315 39.7864 55.2651 39.8378 55.3884C39.8686 55.4603 39.8891 55.522 39.9097 55.5939C39.9611 55.748 40.0021 55.9022 40.1254 56.046L39.9611 56.2721H40.1871C40.1871 56.3954 40.259 56.4776 40.3206 56.5392C40.3514 56.5803 40.3925 56.6112 40.4028 56.6523C40.4028 56.6728 40.4028 56.6728 40.4028 56.6934C40.4028 56.7139 40.3823 56.755 40.3823 56.7961C40.3823 56.9092 40.4747 57.0736 40.6185 57.3099C40.6802 57.4127 40.7418 57.5154 40.7624 57.5771C40.8034 57.6696 40.8343 57.7415 40.8548 57.8134C40.9062 57.9367 40.9473 58.06 41.0397 58.2347C41.4198 58.9232 41.6048 59.5808 41.7999 60.2795C41.8308 60.3926 41.9232 60.5364 42.0157 60.6803C42.0876 60.7831 42.1595 60.8961 42.1903 60.968C42.2622 61.1324 42.2725 61.3277 42.2828 61.5126V61.5845C42.2828 61.5845 42.2828 61.6154 42.293 61.6359H42.252L42.2314 61.7079C42.2109 61.7901 42.2314 61.8723 42.2622 61.9339L42.2828 61.8825Z" fill="#AD863D"/>
<path d="M25.7995 52.1021V52.0811L25.77 52.018H25.7012C25.593 52.018 25.5144 51.9339 25.4259 51.8498C25.3571 51.7867 25.2882 51.7237 25.2096 51.6816C24.8163 51.4924 24.5508 51.3137 24.2952 51.0509C24.2756 51.0298 24.2657 50.9983 24.2559 50.9773C24.2559 50.9562 24.2362 50.9247 24.2067 50.9037C24.1674 50.8721 24.1281 50.8721 24.0789 50.8721C24.0691 50.8406 24.0494 50.7986 24.0298 50.767C24.0494 50.746 24.0789 50.7145 24.1084 50.6829C24.2067 50.5778 24.3345 50.4411 24.3542 50.2834C24.3542 50.1993 24.3444 50.1363 24.3345 50.0942C24.3345 50.0837 24.3345 50.0732 24.3247 50.0732C24.3247 50.0732 24.3345 50.0522 24.3444 50.0417C24.3739 49.9891 24.4329 49.8945 24.4034 49.7788C24.3837 49.7263 24.2461 49.516 24.2166 49.4845C24.1871 49.453 23.9708 49.2637 23.9314 49.2427C23.607 49.0325 22.7909 49.1376 22.4763 49.2637C22.437 49.2848 22.4075 49.3058 22.3878 49.3268C22.3878 49.3268 22.3878 49.3268 22.3682 49.3373C22.3092 49.3163 22.2699 49.2637 22.2207 49.2007C22.1814 49.1586 22.142 49.1166 22.1027 49.0745C21.9159 48.9273 21.8962 48.9063 21.7881 48.7802L21.7193 48.7066C21.6308 48.6015 21.2473 48.3807 21.1195 48.3597C20.9131 48.3176 20.4116 48.3176 20.215 48.3597C20.0675 48.3912 19.8119 48.5068 19.7627 48.7171H19.6448L19.6153 48.8117H19.3891L19.4186 48.9484C19.4186 48.9484 19.399 49.0535 19.3695 49.1061C19.34 49.1796 19.3105 49.2532 19.3203 49.3268C19.3301 49.4004 19.3793 49.495 19.4383 49.6001C19.4678 49.6527 19.4973 49.6947 19.5071 49.7368C19.5759 49.926 19.6939 50.3045 19.7038 50.4727C19.7038 50.5463 19.7038 50.6198 19.7038 50.6934V50.7145C19.7038 50.7145 19.6448 50.7355 19.6153 50.7565C19.4875 50.8406 19.3498 50.9037 19.2023 50.9668C19.104 51.0193 18.9959 51.0614 18.8975 51.1139C18.8386 51.1455 18.7599 51.156 18.6812 51.177C18.6026 51.1875 18.5239 51.2085 18.4453 51.2401C18.2486 51.3137 17.875 51.5344 17.7177 51.629C17.6292 51.6816 17.5899 51.7131 17.5604 51.7447C17.5604 51.7447 17.5506 51.7552 17.5408 51.7657C17.5211 51.7657 17.4719 51.7867 17.4523 51.7867C17.4031 51.7867 17.3638 51.8078 17.3245 51.8288C17.295 51.8498 17.2753 51.8919 17.2753 51.9234C17.2753 51.9339 17.2655 51.9549 17.2556 51.9654C17.2556 51.9654 17.2458 51.9654 17.2065 51.9654L17.0197 51.9234L17.0983 52.1231C17.0983 52.1231 17.0688 52.2177 17.0492 52.2493C17.0295 52.2808 17.0098 52.3124 17 52.3439C17 52.449 17.1475 52.7223 17.1868 52.7644C17.2261 52.8064 17.2655 52.8275 17.3146 52.8485C17.3146 52.8485 17.3245 52.8695 17.3343 52.8905C17.3343 52.9116 17.3539 52.9431 17.3834 52.9746C17.5113 53.1008 17.7767 53.2059 17.9734 53.2269V53.3216H18.0717C18.347 53.3321 18.6321 53.269 18.8975 53.2059C19.0352 53.1744 19.1827 53.1428 19.3203 53.1218C19.3596 53.1218 19.399 53.1218 19.4481 53.1218C19.4973 53.1218 19.5563 53.1218 19.6054 53.1218C19.6546 53.1218 19.7136 53.1008 19.7824 53.0798C20.0085 53.0167 20.1167 53.0062 20.1462 53.0798C20.2052 53.248 20.274 53.5423 20.3133 53.7631L20.333 53.8472C20.4018 54.1626 20.4411 54.4884 20.4903 54.8038C20.51 54.93 20.5198 55.0561 20.5395 55.1823C20.5493 55.2559 20.5886 55.3084 20.6279 55.3505V55.4241C20.6279 55.5502 20.6279 55.6974 20.7066 55.8446C20.7459 55.9076 20.7951 55.9286 20.8344 55.9286C20.8344 55.9497 20.8344 56.0022 20.8344 56.0233C20.8344 56.0653 20.8344 56.1179 20.8639 56.1599C20.9032 56.202 20.9426 56.1915 20.9917 56.1915H21.0704C21.1294 56.2125 21.1785 56.223 21.2179 56.244C21.3752 56.2966 21.4735 56.3281 21.6111 56.3281C21.6996 56.3281 21.7979 56.3176 21.9454 56.2966C21.9454 56.2966 22.5058 56.1809 22.5943 56.0548C22.6828 55.9181 22.7418 55.5292 22.732 55.382C22.6926 54.972 22.7123 54.8038 22.7811 54.3728V54.2992C22.8499 53.9208 22.9089 53.5213 23.0269 53.1639C23.0597 53.0657 23.1416 53.0237 23.2727 53.0377C23.4595 53.0587 23.6365 53.1639 23.8233 53.269C23.9118 53.3216 24.0003 53.3741 24.0986 53.4162C24.1477 53.4372 24.1871 53.4372 24.2166 53.4477C24.2461 53.4477 24.2657 53.4477 24.2854 53.4687C24.2854 53.4687 24.3149 53.5003 24.3247 53.5213C24.364 53.5739 24.4034 53.6369 24.482 53.658C24.482 53.658 24.7573 53.7315 24.8065 53.7105C24.8556 53.7 24.8851 53.658 24.9146 53.6369C24.9146 53.6369 24.9343 53.6159 24.9245 53.6159C24.9539 53.6159 25.0031 53.6159 25.0523 53.6159C25.1014 53.6159 25.1506 53.6159 25.1997 53.6159C25.2784 53.6054 25.3276 53.5528 25.3669 53.5213C25.3865 53.5213 25.4455 53.5213 25.4849 53.5213C25.5635 53.5213 25.6225 53.5213 25.6717 53.4792C25.6913 53.4477 25.7012 53.4162 25.7012 53.3741L25.7208 53.3531C25.8683 53.1534 25.9666 53.0167 25.9961 52.7223C26.0158 52.5016 25.9568 52.407 25.9076 52.2913C25.888 52.2493 25.8585 52.1967 25.8388 52.1336L25.7995 52.1021Z" fill="#AD863D"/>
<path d="M30.1353 11.1567H30.1458C30.1458 11.1567 30.1978 11.1998 30.2186 11.2322C30.2603 11.2861 30.3123 11.3292 30.3748 11.3723C30.6142 11.5124 30.8641 11.6418 31.1036 11.7711C31.2493 11.8466 31.3847 11.922 31.5304 11.9975C31.7282 12.1053 31.7178 12.116 31.6033 12.3963L31.5721 12.4717C31.2805 13.1508 31.166 13.3987 31.114 13.4634C31.0827 13.4634 31.0203 13.4849 30.989 13.5496C30.9474 13.6143 30.937 13.679 30.937 13.7436C30.937 13.7652 30.937 13.7975 30.9266 13.8191C30.9266 13.8191 30.9162 13.8406 30.9058 13.8406C30.8849 13.873 30.8329 13.9161 30.8225 14.0023C30.7912 14.2287 30.8433 14.4335 30.9682 14.6383L30.989 14.6598C31.0619 14.7245 31.1348 14.8107 31.1973 14.9078C31.2701 15.0048 31.343 15.1233 31.4575 15.1988C31.5825 15.2958 31.6658 15.3281 31.749 15.3281C31.8219 15.3281 31.8844 15.3066 31.9573 15.2742C31.9989 15.2527 32.051 15.2311 32.1134 15.2203C32.1551 15.2203 32.1863 15.2203 32.2175 15.2203C32.2904 15.2203 32.3945 15.2203 32.5299 15.1233C32.6756 15.0263 32.7277 14.8754 32.7693 14.7784C32.7901 14.7353 32.8005 14.6922 32.8214 14.6706C32.8422 14.6491 32.8734 14.6275 32.9151 14.5952C33.0192 14.5305 33.1545 14.4335 33.1962 14.2826L34.4663 13.2802C34.4663 13.2802 34.5392 13.3125 34.5808 13.3233C34.6121 13.334 34.6641 13.3556 34.6745 13.3664C34.6953 13.3879 34.7474 13.4742 34.7682 13.5173C34.8099 13.5927 34.8411 13.6466 34.8723 13.679C34.9244 13.7329 34.9244 13.7544 34.9452 13.7868C34.9556 13.8083 34.966 13.8299 34.9973 13.873C35.0493 13.9484 35.1222 13.9916 35.1742 14.0131C35.1847 14.0131 35.2055 14.0347 35.2159 14.0347C35.2367 14.0562 35.2679 14.0886 35.2888 14.1209C35.3512 14.1963 35.4241 14.2934 35.5282 14.3473C35.726 14.4658 36.3923 14.6167 36.6214 14.4874C36.7046 14.4443 36.7567 14.358 36.7879 14.2934C36.7983 14.2718 36.8088 14.2395 36.8296 14.2287C36.8296 14.2287 36.8504 14.2287 36.8608 14.2287C36.8816 14.2287 36.9233 14.2071 36.9441 14.1856C36.9753 14.1532 37.069 13.9377 37.069 13.9377C37.0899 13.8514 37.069 13.7868 37.0482 13.7329C37.0482 13.7005 37.0586 13.6682 37.069 13.6359C37.0899 13.5496 37.1211 13.4418 37.0794 13.3125C37.0586 13.2478 36.8712 13.0107 36.7359 12.9137C36.7151 12.7735 36.611 12.6765 36.5485 12.6119C36.5277 12.6011 36.5173 12.5903 36.5173 12.5795C36.486 12.5256 36.2466 12.0298 36.2257 11.9759C36.2257 11.9544 36.2257 11.9436 36.2257 11.9436C36.2466 11.9005 36.3923 11.7927 36.4964 11.7172C36.6838 11.5771 36.8088 11.4801 36.8712 11.3939C37.1627 11.243 37.4022 11.0166 37.6312 10.8118C37.7978 10.6609 37.9644 10.51 38.1414 10.3914C38.1934 10.3591 38.2559 10.3375 38.3183 10.316C38.4225 10.2836 38.537 10.2405 38.6515 10.1327C38.6723 10.1112 38.6827 10.0896 38.6931 10.0573C38.714 10.0573 38.7348 10.0465 38.7556 10.025C38.7868 9.99261 38.8077 9.9495 38.8181 9.8956C38.8181 9.87405 38.8389 9.84171 38.8389 9.83093C38.8493 9.80937 38.8701 9.78782 38.9014 9.76626C38.943 9.72314 38.9846 9.68003 38.9951 9.62613C39.0263 9.49679 38.9014 9.16265 38.8493 9.08719C38.6827 8.81772 38.4433 8.75305 38.2038 8.6776C38.1309 8.65604 38.0581 8.63448 37.9852 8.60215C37.9852 8.60215 37.9644 8.58059 37.954 8.58059C37.9331 8.55903 37.9019 8.5267 37.8603 8.51592C37.7562 8.48358 37.6833 8.51592 37.6416 8.53747H37.6208H37.5167C37.4126 8.53747 37.2772 8.5267 37.1523 8.59137C37.1003 8.61293 37.0586 8.66682 37.017 8.72071C36.9857 8.75305 36.9545 8.79617 36.9337 8.81772C36.8192 8.90395 36.6942 8.97941 36.5485 9.06564C36.4027 9.15187 36.257 9.2381 36.1216 9.33511C35.9551 9.46445 35.9134 9.47523 35.7885 9.52912C35.7364 9.55068 35.6844 9.57224 35.6115 9.60458C35.549 9.63691 35.4866 9.69081 35.4241 9.7447C35.3825 9.77704 35.3408 9.82015 35.32 9.83093C35.2888 9.83093 35.1742 9.87405 35.1222 9.88483C35.0805 9.83093 35.0285 9.77704 34.9764 9.72314C34.9036 9.64769 34.8411 9.57224 34.7994 9.51835C34.6016 9.22732 34.4559 8.87162 34.3205 8.5267C34.2789 8.41891 34.2373 8.31112 34.1852 8.20333C34.1227 8.05243 34.029 7.98776 33.9562 7.94464C33.9353 7.92308 33.9041 7.9123 33.8937 7.89075C33.8937 7.89075 33.8729 7.79374 33.8104 7.75062C33.8 7.75062 33.571 7.62128 33.5397 7.6105C33.394 7.56738 33.2378 7.52427 33.0921 7.48115C32.9879 7.45959 32.8734 7.42726 32.7693 7.39492H32.7381C32.5923 7.34103 32.457 7.30869 32.3633 7.34103C32.3008 7.36258 32.2488 7.41648 32.2071 7.47037C32.1863 7.49193 32.1655 7.52427 32.1447 7.53505C32.1447 7.53505 32.1238 7.53505 32.103 7.54582C32.0718 7.54582 32.0301 7.56738 31.9989 7.58894C31.874 7.66439 31.7699 7.86919 31.749 7.98776C31.7386 8.08476 31.7907 8.14944 31.8323 8.19255C31.8219 8.268 31.7699 8.44047 31.749 8.49436L31.7074 8.59137L31.8011 8.63448C31.874 8.66682 31.874 8.6776 31.8844 8.70994C31.8844 8.73149 31.9052 8.77461 31.926 8.81772C31.9468 8.83928 31.9781 8.89318 32.0093 8.93629C32.0301 8.96863 32.0614 9.00096 32.0822 9.0333C32.0822 9.0333 32.0822 9.0333 32.0822 9.05486C32.0614 9.09797 32.0405 9.15187 32.0405 9.22732C32.0405 9.28121 32.0614 9.31355 32.0822 9.34589C32.0822 9.35666 32.103 9.37822 32.103 9.389V9.46445C32.1238 9.85249 32.103 10.0788 31.9156 10.0896C31.9156 10.0896 31.8948 10.0896 31.8844 10.0788C31.8636 10.0681 31.8219 10.0465 31.7699 10.0465C31.7178 10.0465 31.6866 10.0681 31.6553 10.0788C31.6553 10.0788 31.6345 10.0788 31.6345 10.0896C31.6033 10.0896 31.4888 10.0357 31.4159 10.0034C31.3222 9.96028 31.2285 9.91716 31.166 9.8956C30.9786 9.85249 30.5101 9.84171 30.3123 9.91716C30.2811 9.91716 30.0312 10.025 30 10.1543V10.1759L30.1249 11.1136L30.1562 11.1352L30.1353 11.1567Z" fill="#AD863D"/>
<path d="M13.5582 18.767H13.5359C13.5359 18.767 13.6252 18.767 13.6699 18.7774H13.7368C13.7368 18.7774 13.7703 18.7982 13.7927 18.819C13.8485 18.8607 13.9155 18.9127 13.9936 18.9231C14.0494 18.9231 14.0941 18.9231 14.1276 18.9023C14.1611 18.8919 14.1722 18.8815 14.1946 18.8919C14.2727 18.9023 14.4067 18.9751 14.5183 19.0272C14.6188 19.0792 14.697 19.1209 14.764 19.1313C14.8198 19.1313 14.8644 19.1313 14.9426 19.1104C15.0431 19.0896 15.1659 19.0584 15.2552 19.1C15.3557 19.1521 15.3557 19.1729 15.311 19.2978C15.2887 19.3498 15.2663 19.4123 15.2663 19.4747C15.2663 19.5788 15.3333 19.7973 15.4226 19.8806C15.7129 20.1512 16.4051 20.2553 16.4833 20.2657C16.6619 20.2865 16.8517 20.2553 16.9968 20.3073L17.075 20.3281L17.1308 20.2761C17.1308 20.2761 17.2089 20.1824 17.2536 20.1408C17.2982 20.0783 17.3429 20.0263 17.4099 19.9743C17.4099 19.9743 17.4545 19.9535 17.4657 19.9535C17.4992 19.9535 17.5327 19.9326 17.555 19.9014C17.5774 19.8702 17.5885 19.8286 17.5885 19.7869C17.5885 19.7661 17.5885 19.7349 17.5885 19.7349C17.6108 19.6829 17.6443 19.6204 17.6667 19.5684C17.689 19.5163 17.7225 19.4747 17.7448 19.4227C17.8006 19.4331 17.8565 19.4435 17.9123 19.4435C17.9569 19.4435 18.0128 19.4435 18.0574 19.4643C18.1914 19.4851 18.3254 19.5059 18.4482 19.5163C18.5598 19.5267 18.6826 19.5372 18.7719 19.5684C18.7719 19.5684 18.8054 19.5892 18.8278 19.5892C18.8836 19.6204 18.9506 19.662 19.0399 19.6516C19.1515 19.6308 19.2632 19.5892 19.3636 19.5372C19.453 19.4955 19.5423 19.4539 19.6204 19.4435H19.6762L19.9777 18.9543L20 18.7774L19.9777 18.7462C19.9442 18.6837 19.9107 18.5693 19.8884 18.4756C19.866 18.3507 19.8325 18.2258 19.7767 18.153C19.7432 18.1113 19.4864 17.9344 19.4864 17.9344C19.4306 17.9136 19.3748 17.9032 19.3301 17.9032C19.3078 17.9032 19.2743 17.9032 19.2632 17.8928C19.2185 17.872 18.9617 17.6638 18.9394 17.6326C18.9394 17.6326 18.9394 17.6222 18.9282 17.6118C19.1292 17.5285 19.3636 17.362 19.4195 17.1746C19.4418 17.1122 19.4753 16.9249 19.4864 16.852C19.4864 16.7583 19.4864 16.6855 19.4641 16.6335C19.4641 16.6126 19.453 16.5814 19.4641 16.5606C19.4753 16.5294 19.5088 16.4669 19.4641 16.3941C19.4306 16.3525 19.386 16.3316 19.3413 16.3108C19.319 16.3108 19.2967 16.29 19.2855 16.2796C19.2632 16.2588 19.252 16.2276 19.2297 16.2067C19.185 16.1443 19.1292 16.061 19.051 16.009C18.8166 15.8633 18.4147 15.8737 18.1802 15.957C18.1132 15.9778 18.0686 16.0298 18.0351 16.0714C18.0351 16.0714 18.0351 16.0714 18.0239 16.0923C18.0239 16.0923 17.9569 16.061 17.9011 16.0506H17.7337C17.6667 16.0506 17.5774 16.0506 17.555 16.0506C17.5327 16.0298 17.5104 15.957 17.4992 15.9049C17.4769 15.8425 17.4657 15.78 17.4322 15.7384C17.2424 15.4366 16.7735 15.3013 16.4498 15.3325C16.3939 15.3325 16.1148 15.3846 16.0478 15.4158C15.9809 15.447 15.6124 15.7592 15.5678 15.8009C15.4115 15.9778 15.3333 16.1131 15.3892 16.3941C15.4115 16.4877 15.4561 16.5918 15.512 16.7063C15.5455 16.7792 15.6013 16.8728 15.6013 16.9145C15.6013 16.9665 15.5455 17.1538 15.5343 17.1851C15.4226 17.2683 15.244 17.2787 15.0654 17.2787C15.0096 17.2787 14.9649 17.2787 14.9091 17.2787H14.5853C14.3955 17.2787 14.3732 17.2787 14.3397 17.2787C14.1164 17.3308 13.815 17.4973 13.5694 17.6326C13.5024 17.6638 13.4466 17.695 13.4019 17.7262C13.4019 17.7262 13.3684 17.7262 13.3461 17.7262C13.3126 17.7262 13.2679 17.7262 13.2233 17.7575C13.1786 17.7887 13.0447 18.0177 13.0223 18.0593L13 18.0905V18.1217C13.0335 18.257 13.4131 18.7046 13.5582 18.7462V18.767Z" fill="#AD863D"/>
<path d="M12.7753 45.3188H12.8157H12.9368C12.9368 45.3188 12.9974 45.3188 13.0276 45.3188C13.0983 45.3188 13.4313 45.226 13.4919 45.1981C13.5726 45.161 13.6231 45.0867 13.6634 45.0218C13.6836 44.9939 13.7038 44.966 13.7139 44.9568C13.9258 44.7897 14.1983 44.6411 14.4506 44.5018C14.7433 44.344 15.046 44.1769 15.2882 43.9727C15.5506 43.7498 15.8837 43.5363 16.1965 43.3321C16.3479 43.2392 16.4993 43.1371 16.6405 43.0443C17.1956 42.6636 17.7002 42.2644 18.1947 41.8838C18.5176 41.6238 18.8608 41.3546 19.214 41.0946C19.2644 41.0575 19.3351 41.0203 19.4057 40.9832C19.4966 40.9368 19.5874 40.8904 19.6479 40.8347C19.6984 40.7882 19.7388 40.7233 19.7892 40.649C19.8094 40.6211 19.8296 40.584 19.8498 40.5654C19.87 40.5654 19.9103 40.5654 19.9406 40.5469C20.0314 40.4819 19.9911 40.0734 19.9911 40.0734C19.9608 39.8877 19.8498 39.8134 19.7589 39.767C19.7186 39.7484 19.6883 39.7299 19.6681 39.702C19.658 39.6834 19.6479 39.6742 19.6479 39.6556C19.6076 39.572 19.5571 39.5442 19.4461 39.5349V39.4142L19.3048 39.4699C19.2443 39.4885 19.1635 39.4421 19.0929 39.3864C19.0525 39.3585 19.0222 39.3307 18.9819 39.3307C18.9415 39.3307 18.9112 39.3399 18.8809 39.3585C18.8809 39.3585 18.8608 39.3585 18.8507 39.3492C18.8204 39.3399 18.78 39.3214 18.7296 39.3307C18.669 39.3307 18.5681 39.3585 18.5176 39.4699C18.4773 39.4699 18.4268 39.4885 18.3764 39.5163C18.3057 39.5628 18.2149 39.6649 18.1241 39.7763C18.0635 39.8506 18.003 39.9248 17.9525 39.9713C17.8516 40.0641 17.7406 40.1476 17.6396 40.2312C17.5387 40.3148 17.4277 40.3983 17.3268 40.4912L17.2562 40.5561C17.125 40.6676 17.0039 40.779 16.913 40.9368C16.8121 40.9275 16.7616 40.9646 16.7011 41.0203C16.691 41.0296 16.6708 41.0482 16.6405 41.0668C16.6204 41.0668 16.58 41.0668 16.5497 41.1039C16.5094 41.141 16.5094 41.1875 16.5094 41.2432V41.2803C16.4488 41.3267 16.2772 41.4474 16.2369 41.466C16.2066 41.466 16.1763 41.4753 16.146 41.4753C16.0956 41.4753 16.035 41.4753 15.9745 41.5124C15.9139 41.5402 15.6213 41.7631 15.5809 41.8188C15.5506 41.8652 15.5304 41.9116 15.5203 41.958C15.5103 41.958 15.4901 41.9673 15.4699 41.9766L15.3892 41.8281L15.2983 41.9859C15.2983 41.9859 15.258 42.0137 15.2378 42.023C15.2075 42.0416 15.1772 42.0509 15.1469 42.0787C15.0258 42.1808 15.0057 42.1901 14.9653 42.2087C14.935 42.218 14.8846 42.2365 14.7937 42.283C14.5818 42.3944 14.38 42.5429 14.1882 42.6915C14.0368 42.8029 13.9056 42.905 13.7644 42.9886C13.7038 43.0257 13.6432 43.0907 13.5928 43.1464C13.5524 43.1835 13.502 43.2485 13.4818 43.2578C13.4616 43.2671 13.401 43.2764 13.3506 43.2764C13.2799 43.2764 13.1992 43.2949 13.1185 43.3228C12.9974 43.3692 12.9166 43.4435 12.8561 43.4992C12.8359 43.5177 12.8157 43.5363 12.8056 43.5456C12.7955 43.5456 12.7653 43.5642 12.735 43.5642C12.6139 43.6013 12.5331 43.6292 12.4928 43.6663C12.4625 43.6941 12.4625 43.7313 12.4625 43.7591C12.3212 43.7591 12.079 43.7591 12.0185 43.9541C11.9983 44.0191 12.0185 44.0748 12.0386 44.1119C12.0386 44.1212 12.0487 44.1398 12.0487 44.1398C12.0487 44.1583 12.0487 44.1676 12.0285 44.1955C12.0084 44.2419 11.9882 44.3069 12.0084 44.3997C12.0185 44.4647 12.0588 44.5111 12.079 44.539C12.079 44.539 12.0992 44.5576 12.0992 44.5668C12.1194 44.6133 12.1396 44.6782 12.1496 44.7525C12.1698 44.8546 12.2001 44.9475 12.2405 45.0125C12.301 45.1239 12.4423 45.1796 12.5836 45.226C12.6542 45.2539 12.7249 45.2817 12.7753 45.3096L12.8056 45.3281L12.7753 45.3188Z" fill="#AD863D"/>
<path d="M38.6852 16.6391C38.6852 16.6391 38.6334 16.649 38.5712 16.6884C38.395 16.7771 38.2396 17.0236 38.1049 17.2405C38.0531 17.3293 38.0013 17.4081 37.9495 17.4673C37.7318 17.7434 37.4313 18.049 37.3484 18.1378C37.2241 18.2659 37.1101 18.4237 36.9961 18.5716C36.8718 18.7392 36.7474 18.9068 36.6231 19.0251C36.4262 19.2125 36.2501 19.459 36.0635 19.7252C35.877 20.0012 35.6801 20.2773 35.4625 20.4646L35.4418 20.5041C35.4004 20.6027 35.3175 20.6914 35.2346 20.7802C35.0791 20.9379 34.8823 21.145 35.0895 21.4802C35.1102 21.5196 35.1413 21.5394 35.1724 21.5591L35.1931 21.5689C35.1931 21.5886 35.1931 21.6084 35.2035 21.6379C35.2035 21.6774 35.2035 21.7267 35.2346 21.776C35.2553 21.8154 35.4729 22.0225 35.5143 22.0422C35.5662 22.0619 35.6076 22.0718 35.6594 22.0718C35.6801 22.0718 35.7112 22.0718 35.7216 22.0718C35.7216 22.0718 35.732 22.0816 35.7423 22.0915C35.763 22.1112 35.7941 22.1507 35.8356 22.1704C35.877 22.1901 35.9185 22.2098 35.9703 22.2295C36.0221 22.2492 36.0635 22.269 36.1154 22.2985L36.1672 22.3281L36.8821 22.0422L36.9029 22.0225C37.0583 21.7957 37.2137 21.5788 37.3692 21.3619C37.5039 21.1745 37.6386 20.9774 37.7733 20.79C38.0013 20.4646 38.25 20.1491 38.4986 19.8336C38.8302 19.3998 39.1929 18.9561 39.4623 18.4927C39.4934 18.4434 39.5349 18.3843 39.5763 18.3152C39.7421 18.0589 39.9597 17.7335 39.9908 17.5363C40.0115 17.3983 39.9908 17.2898 39.9908 17.1814C39.9908 17.1321 39.9804 17.0926 39.9701 17.0433C39.9701 17.0433 39.9701 17.0138 39.9701 16.994C39.9908 16.9152 40.0115 16.7771 39.8975 16.6785C39.8768 16.6588 39.8354 16.6391 39.8146 16.6292C39.8043 16.6292 39.7835 16.6292 39.7835 16.6194C39.7835 16.6194 39.7214 16.5405 39.6903 16.5109C39.597 16.4025 39.4934 16.3039 39.2344 16.3334C39.0064 16.3532 38.8717 16.4813 38.7577 16.6095C38.7266 16.6391 38.7162 16.6588 38.7162 16.6588L38.6852 16.6391Z" fill="#AD863D"/>
<path d="M24.1005 15.4149C24.1005 15.4149 24.1005 15.4559 24.1005 15.4867C24.1005 15.5483 24.1005 15.6406 24.1908 15.7535C24.236 15.8048 24.2811 15.8253 24.3263 15.8459C24.3263 15.8459 24.3489 15.8561 24.3489 15.8664C24.3827 15.9074 24.4053 15.9485 24.4392 15.9895C24.5182 16.1126 24.6198 16.2666 24.8794 16.2768C24.9246 16.2768 24.9697 16.2768 25.0149 16.2666C25.0374 16.2666 25.0713 16.2563 25.0826 16.2666C25.0826 16.2666 25.1052 16.2871 25.1277 16.2871C25.1503 16.3076 25.1955 16.3281 25.2293 16.3281H25.2519C25.3648 16.3076 25.6696 15.8766 25.6696 15.8664C25.7373 15.7227 25.726 15.6406 25.726 15.5688C25.726 15.538 25.726 15.5072 25.726 15.4662V15.4354C25.7486 15.2199 25.7599 15.025 25.7824 14.8095C25.805 14.4504 25.8389 14.081 25.884 13.7321C25.9631 13.0857 26.0421 12.4187 25.9743 11.762C25.9518 11.567 25.9743 11.4131 25.9743 11.249C25.9969 11.0027 26.0082 10.7564 25.9292 10.4076C25.9292 10.387 25.9292 10.346 25.9292 10.3152C25.9292 10.2331 25.9405 10.11 25.8727 9.98686C25.8502 9.94582 25.805 9.91504 25.7712 9.89451C25.7486 9.87399 25.7147 9.85347 25.7034 9.84321C25.6809 9.81243 25.6696 9.78164 25.647 9.7406C25.5905 9.61747 25.5228 9.47382 25.3535 9.41225C25.2745 9.38147 25.1616 9.38147 25.06 9.39173H24.9584C24.9584 9.39173 24.9358 9.39173 24.9358 9.37121C24.902 9.35068 24.8568 9.3199 24.8004 9.33016C24.6198 9.35069 24.5182 9.47382 24.4279 9.56616L24.394 9.58669C24.394 9.58669 24.3263 9.61747 24.3037 9.64825C24.2473 9.72008 24.2134 10.0587 24.2134 10.11C24.2134 10.2639 24.236 10.387 24.2698 10.5102C24.3037 10.6743 24.3376 10.8283 24.3037 11.0437C24.2811 11.1874 24.2924 11.3516 24.3037 11.5157C24.3037 11.6184 24.315 11.7312 24.315 11.8338C24.315 12.1211 24.2811 12.429 24.236 12.7163C24.1908 13.0754 24.157 13.4345 24.1683 13.7937C24.1683 13.9784 24.1344 14.1938 24.0892 14.4196C24.0328 14.6966 23.9764 14.9839 24.0102 15.2507C24.0102 15.302 24.0441 15.3431 24.0667 15.3739C24.078 15.3944 24.1005 15.4149 24.1005 15.4354V15.4149Z" fill="#AD863D"/>
<path d="M16.9576 57.2062C16.9576 57.2062 16.9788 57.1506 16.9682 57.1062C16.9682 57.0506 16.9259 57.0173 16.9047 56.9951L16.8835 56.9728C16.8835 56.9506 16.8729 56.9173 16.8623 56.8951C16.8411 56.7951 16.82 56.7395 16.7882 56.7062C16.7564 56.6729 16.6929 56.6506 16.6293 56.6395C16.6082 56.6395 16.5552 56.6173 16.5446 56.6173C16.2057 56.4396 15.8351 56.284 15.4221 56.3396C15.3479 56.3396 15.2738 56.384 15.1891 56.4173C15.1044 56.4507 15.0091 56.4951 14.9455 56.4951H14.829V56.6173C14.8502 56.8062 14.6914 56.9395 14.5325 57.0839L14.4901 57.1173C14.2783 57.295 14.056 57.4506 13.8336 57.6172C13.6853 57.7172 13.537 57.8283 13.3888 57.9394L13.2405 58.0505C12.9546 58.2727 12.6581 58.5061 12.3721 58.6727C12.3721 58.6727 12.3298 58.6727 12.3192 58.6727C12.2874 58.6727 12.245 58.6727 12.2133 58.706C12.1497 58.7616 12.0121 59.1727 12.0015 59.1949C11.9803 59.4393 12.1921 59.6615 12.3404 59.8171L12.4039 59.8837C12.4039 59.8837 12.4251 59.9059 12.4251 59.9282C12.4357 59.9615 12.4463 59.9948 12.478 60.017C12.5839 60.1281 12.6898 60.1615 12.7746 60.1948C12.8063 60.1948 12.8381 60.217 12.8699 60.2281C12.8699 60.2281 12.891 60.2392 12.9016 60.2504C12.9334 60.2726 12.9758 60.317 13.0605 60.3281C13.0711 60.3281 13.1664 60.3281 13.2829 60.3281C13.4205 60.3281 13.59 60.3281 13.6535 60.2726C13.6959 60.2392 13.7171 60.1948 13.7277 60.1504C13.7806 60.1504 13.8547 60.1504 13.9077 60.1059C13.9501 60.0726 13.9818 60.0281 14.003 59.9726C14.003 59.9504 14.0242 59.917 14.0348 59.917C14.1619 59.7726 14.3737 59.6393 14.5749 59.506C14.6914 59.4282 14.7973 59.3615 14.9032 59.2838C15.0832 59.1504 15.2632 58.9949 15.4538 58.8171C15.6233 58.6727 15.7927 58.5283 15.9622 58.3838C16.0575 58.3061 16.1634 58.2394 16.2905 58.1616C16.4811 58.0394 16.6611 57.9172 16.7988 57.7839C16.8411 57.7394 17 57.4506 17 57.3617C17 57.295 16.9788 57.2395 16.9682 57.2062C16.9682 57.195 16.9576 57.1728 16.9682 57.1506L16.9576 57.2062Z" fill="#AD863D"/>
<path d="M12.8175 27.9683L12.8396 27.9459C12.9832 27.7435 13.0385 27.3949 12.9722 27.1701C12.9501 27.0801 12.5633 26.8103 12.5633 26.7991C12.4197 26.7091 12.2871 26.6979 12.1766 26.6866C12.1214 26.6866 12.0661 26.6754 12.0109 26.6641C11.2927 26.473 10.5523 26.2481 9.90044 26.0345C9.70155 25.9783 9.52476 25.9108 9.35902 25.8434C9.04963 25.731 8.76235 25.6298 8.40877 25.5511C8.35352 25.5398 8.27617 25.5061 8.19883 25.4724C8.08833 25.4161 7.96679 25.3599 7.84525 25.3374C7.70161 25.315 7.51377 25.3374 7.31488 25.3599C7.18228 25.3712 7.03864 25.3937 6.9171 25.3937C6.895 25.3937 6.86185 25.3937 6.8287 25.3712C6.78451 25.3599 6.74031 25.3374 6.68506 25.3487C6.64086 25.3487 6.25414 25.4724 6.22099 25.4836C6.12154 25.5398 6.07735 25.641 6.05525 25.7197C6.05525 25.7534 6.03315 25.7872 6.0221 25.7984L6 25.8209V25.8546C6 25.9671 6.09944 26.0345 6.33148 26.1469C6.38673 26.1807 6.44198 26.2032 6.46407 26.2257C6.48617 26.2481 6.54142 26.3493 6.55247 26.3943C6.57457 26.4618 6.59667 26.4955 6.62982 26.5292C6.67401 26.5742 6.72926 26.5629 6.78451 26.5629H6.8508C6.9171 26.5854 7.02759 26.6416 7.13809 26.6979C7.25963 26.7541 7.38117 26.8215 7.48062 26.8553C7.64636 26.9227 7.82315 26.9902 7.99994 27.0576C8.35352 27.2038 8.7292 27.35 9.08278 27.4512C9.24852 27.5074 9.42531 27.5523 9.59105 27.6086C10.0109 27.7322 10.4419 27.8559 10.8507 28.0246C10.9059 28.047 11.0164 28.1033 11.1048 28.1482C11.2043 28.2045 11.2153 28.2045 11.2374 28.2157C11.2927 28.2382 11.3479 28.2269 11.4032 28.2269H11.4805C11.4805 28.2269 11.4915 28.2382 11.5026 28.2494C11.5247 28.2719 11.5689 28.3169 11.6352 28.3281H11.6462C11.6462 28.3281 11.7346 28.3281 11.7788 28.3056C11.8451 28.2944 11.9335 28.2719 11.9888 28.2832H12.033L12.8285 27.9796L12.8175 27.9683Z" fill="#AD863D"/>
<path d="M22.8627 61.2512H22.8541C22.8201 61.0069 22.8031 60.7625 22.7775 60.5182C22.7605 60.3462 22.7434 60.1652 22.7264 59.9933C22.7264 59.939 22.7179 59.8847 22.7094 59.8304C22.6838 59.5498 22.6583 59.2603 22.4965 59.0159C22.4539 58.9526 22.4113 58.9345 22.3688 58.9164C22.3517 58.8983 22.3347 58.853 22.3177 58.8168C22.2751 58.7354 22.2581 58.6901 22.2325 58.672C22.1814 58.6268 22.1048 58.5906 22.0196 58.5634C21.943 58.5363 21.8408 58.5001 21.8153 58.4548L21.7301 58.3281L21.645 58.5001C21.3895 58.4729 21.1766 58.5996 21.1 58.8168C21.0659 58.8168 21.0319 58.8349 21.0148 58.8802C20.9808 58.9345 21.0148 58.9888 21.0234 59.0159C21.0234 59.0159 21.0234 59.034 21.0319 59.034C21.0319 59.0612 21.0319 59.0793 21.0319 59.0974C21.0319 59.1607 21.0148 59.2331 21.0744 59.3508C21.2448 59.6765 21.2362 59.7489 21.2192 60.0476C21.2192 60.0928 21.2192 60.1562 21.2107 60.2105C21.1937 60.5182 21.2277 60.844 21.2618 61.1517C21.2703 61.2512 21.2788 61.3417 21.2873 61.4503C21.2788 61.4774 21.2618 61.5317 21.2873 61.6041C21.3044 61.6494 21.364 61.767 21.3895 61.8123C21.4321 61.8666 21.4747 61.8937 21.5172 61.9209C21.5172 61.948 21.5172 61.9842 21.5598 62.0023C21.5939 62.0295 21.6279 62.0295 21.6535 62.0385C21.662 62.0385 21.6875 62.0385 21.6875 62.0385C21.6875 62.0385 21.6961 62.0566 21.7046 62.0566C21.7216 62.0747 21.7472 62.1109 21.7812 62.129C22.0196 62.2557 22.1814 62.2738 22.4199 62.2919C22.4199 62.2919 22.4369 62.2919 22.4454 62.301C22.471 62.31 22.505 62.3281 22.5391 62.3281H22.5646C22.5646 62.3281 22.6157 62.31 22.6668 62.2738C22.7009 62.2557 22.7605 62.2105 22.786 62.2014L22.8627 62.1833V62.1019C22.8456 62.0476 22.8797 61.9752 22.9223 61.9118C22.9648 61.8394 23.0074 61.767 22.9989 61.6765C22.9989 61.577 22.9563 61.4774 22.9223 61.387C22.8967 61.3236 22.8797 61.2603 22.8712 61.2241L22.8627 61.2512Z" fill="#AD863D"/>
<path d="M4.67821 24.5262C4.6269 24.4614 4.5756 24.4225 4.54481 24.3836C4.52429 24.3576 4.50377 24.3058 4.48325 24.2539C4.45246 24.1632 4.41142 24.0854 4.36011 24.0206C4.3088 23.9558 4.23697 23.9298 4.17541 23.9169C4.1241 23.9039 4.08305 23.8909 4.06253 23.8521C4.05227 23.8391 4.04201 23.8002 4.04201 23.7613C4.03175 23.6965 4.01122 23.6187 3.94966 23.5669C3.89835 23.515 3.41607 23.3335 3.41607 23.3335C3.25188 23.2946 2.6362 23.4761 2.51307 23.5669C2.47202 23.5928 2.16418 23.9687 2.14366 24.0335C2.12314 24.0984 2.06157 24.3706 2.05131 24.4354C2.05131 24.5262 2.05131 24.591 2.07183 24.6558C2.09235 24.7466 2.09235 24.7854 2.07183 24.8632L2 25.0706L2.19497 25.0447C2.19497 25.0447 2.19497 25.0706 2.20523 25.0836C2.20523 25.1095 2.22575 25.1614 2.25653 25.1873C2.43098 25.4207 2.6362 25.5244 2.84143 25.6022C2.96457 25.667 3.0877 25.7188 3.20058 25.7966C3.25188 25.8355 3.28267 25.8614 3.31345 25.8874C3.39554 25.9522 3.45711 26.004 3.58025 26.0948C3.62129 26.1207 3.65208 26.1596 3.68286 26.1855C3.76495 26.2503 3.83678 26.3281 3.9907 26.3281C4.01122 26.3281 4.04201 26.3281 4.08305 26.3281C4.1241 26.3281 4.15488 26.3022 4.18567 26.2892C4.20619 26.2892 4.22671 26.2633 4.23697 26.2633H4.3088C4.3088 26.2633 4.40115 26.2633 4.45246 26.2633C4.54481 26.2244 4.5756 26.1207 4.59612 26.0429C4.59612 26.0429 4.71926 25.9911 4.7603 25.8874C4.7603 25.8614 4.92448 25.4725 4.94501 25.4336C4.94501 25.4336 5.01684 25.0058 4.99631 24.928C4.96553 24.7984 4.85265 24.6817 4.67821 24.5132V24.5262Z" fill="#AD863D"/>
<path d="M60.9561 19.1205C60.9561 19.1205 60.9349 19.1043 60.9349 19.0962C60.9349 19.08 60.9349 19.0556 60.9243 19.0394C60.9243 18.9989 60.9137 18.9503 60.8714 18.9179C60.8396 18.8773 60.5748 18.7395 60.5642 18.7395C60.5218 18.7233 60.1828 18.5774 60.0451 18.5774C60.0028 18.5774 59.971 18.5774 59.9498 18.5937C59.9286 18.5937 59.9074 18.6018 59.8862 18.6018C59.346 18.6018 58.7528 18.6423 58.1914 18.6747C57.916 18.6909 57.6406 18.7071 57.3652 18.7152C57.1957 18.7233 57.0262 18.7152 56.8568 18.7152C56.7085 18.7152 56.5602 18.7152 56.4225 18.7152C55.8717 18.7395 55.2149 18.699 54.5794 18.6504C54.3039 18.6342 54.0285 18.6099 53.7743 18.6018L53.3612 18.5856C52.535 18.545 51.7511 18.5126 50.9143 18.4072C50.6813 18.3748 50.4694 18.3667 50.2576 18.3586C50.0881 18.3586 49.9186 18.3424 49.7597 18.3262C49.7491 18.3262 49.7279 18.3181 49.7068 18.3019C49.675 18.2776 49.622 18.2451 49.5373 18.2451C48.8488 18.2614 48.0225 18.1884 47.0056 18.0101C46.9315 17.9939 46.8573 17.9858 46.7832 17.9696C46.3383 17.8966 45.8511 17.8156 45.6286 17.5643L45.5756 17.5076L45.4909 17.5319C45.4909 17.5319 45.4591 17.54 45.4485 17.5481C45.4485 17.5238 45.4274 17.4995 45.3956 17.4752C45.3638 17.459 45.3426 17.4509 45.2367 17.4346C45.1731 17.4265 45.0778 17.4184 45.0354 17.4022C45.0354 17.4022 45.0142 17.3941 45.0036 17.386C44.9719 17.3698 44.9295 17.3293 44.8448 17.3293C44.813 17.3293 44.3575 17.3131 44.2516 17.4022C44.2092 17.4346 44.2198 17.4752 44.2198 17.5157C44.2198 17.5319 44.2198 17.5643 44.2198 17.5643H44.1986C44.1668 17.5643 44.1351 17.5805 44.1033 17.6048C43.9762 17.7021 43.9762 18.083 44.0503 18.1803C44.0715 18.2127 44.1033 18.2289 44.1245 18.2451C44.1245 18.2451 44.1456 18.2614 44.1562 18.2614C44.2198 18.3424 44.2622 18.4072 44.2939 18.464C44.3999 18.6342 44.4634 18.7395 44.8236 18.9179C45.5651 19.2826 46.243 19.4285 47.0056 19.5663C47.3022 19.623 47.5671 19.6554 47.8636 19.6878H47.9378C48.9017 19.8094 49.6538 19.8661 50.3105 19.8824C50.6283 19.8824 51.052 19.9472 51.4651 20.012C51.6982 20.0445 51.9206 20.0769 52.1325 20.1012C52.196 20.1012 52.2808 20.1174 52.3549 20.1336C52.4608 20.1498 52.5774 20.1741 52.6621 20.1741C52.8634 20.1903 53.0858 20.1741 53.2977 20.1741C53.5201 20.1741 53.7637 20.1579 53.965 20.1741C54.018 20.1741 54.1133 20.2065 54.2086 20.2309C54.3781 20.2714 54.484 20.2957 54.5582 20.2876C54.6111 20.2876 54.6535 20.2633 54.6853 20.239C54.7065 20.2228 54.7382 20.2147 54.7488 20.2147C55.056 20.2147 55.3738 20.2471 55.681 20.2714C56.0305 20.2957 56.4013 20.3281 56.7508 20.3281H56.8991C57.0368 20.3281 57.1745 20.32 57.3122 20.3119C57.6618 20.2957 58.0219 20.2876 58.3609 20.2957C58.5834 20.2957 58.7317 20.2633 58.8588 20.2309C58.9435 20.2065 59.0282 20.1903 59.113 20.1822H59.3037C59.4202 20.1822 59.5473 20.1822 59.685 20.1741C59.9498 20.1417 60.5006 20.0363 60.7337 19.8742C60.9137 19.7446 61.0408 19.3798 60.9879 19.2177C60.9773 19.1772 60.9561 19.1529 60.9349 19.1286L60.9561 19.1205Z" fill="#AD863D"/>
<path d="M26.9192 29.0468C26.839 28.9099 26.7321 28.8186 26.6163 28.7388C26.5361 28.6817 26.4648 28.6247 26.4024 28.5563L26.3846 28.5334H26.3579C26.2955 28.5106 26.2331 28.4764 26.1618 28.4422C26.0817 28.3966 25.9926 28.3395 25.8945 28.3281C25.8233 28.3281 25.7252 28.3509 25.645 28.3623L25.5738 28.3852C25.5738 28.3852 25.4936 28.4194 25.4757 28.522C25.4579 28.522 25.4401 28.522 25.4312 28.5334C25.3866 28.5449 25.3332 28.5563 25.2975 28.5905C25.1995 28.6703 25.1728 28.83 25.1461 28.9441V28.9669C25.1461 28.9669 25.1282 29.0582 25.1193 29.0696C25.1193 29.0696 25.1015 29.0924 25.0926 29.0924C25.057 29.1266 25.0124 29.1722 25.0035 29.2521C24.9946 29.3091 25.0035 29.3547 25.0213 29.4118C25.0302 29.4346 25.0391 29.4802 25.0391 29.4916C25.0391 29.6285 25.048 29.6855 25.057 29.7312C25.057 29.7426 25.057 29.754 25.057 29.7654V29.7882C25.048 29.8338 25.0213 29.9137 25.0302 29.9935C25.0302 30.1076 25.0837 30.2559 25.1193 30.4042C25.1372 30.4612 25.155 30.5296 25.1639 30.5753C25.1728 30.6209 25.1995 30.6665 25.253 30.6779C25.253 30.735 25.2708 30.8148 25.3243 30.8604C25.3688 30.8947 25.4134 30.9175 25.4579 30.9175C25.4757 30.9175 25.4936 30.9175 25.5114 30.9289C25.5114 30.9517 25.5114 30.9973 25.5559 31.0315C25.5827 31.0658 25.8411 31.2026 25.8678 31.2141C25.9302 31.2369 26.0015 31.2597 26.0638 31.2711C26.1351 31.2825 26.1975 31.2939 26.251 31.3281H26.2688H26.2866C26.349 31.3281 26.3935 31.2711 26.447 31.2369C26.4648 31.2141 26.4915 31.1912 26.5094 31.1798C26.5361 31.1684 26.5628 31.157 26.5895 31.1456C26.6876 31.1228 26.8212 31.0772 26.8658 30.8034C26.8747 30.7236 26.8836 30.6779 26.8836 30.6323C26.8836 30.5525 26.9014 30.5068 26.946 30.3699C26.9994 30.1988 26.9905 29.9707 26.9727 29.754C26.9727 29.6399 26.9549 29.5373 26.9638 29.4346C26.9638 29.4004 26.9638 29.3661 26.9816 29.3433C27.0083 29.2521 27.0172 29.1608 26.9281 29.0011L26.9192 29.0468Z" fill="#AD863D"/>
<path d="M22.7545 29.0211C22.8792 28.8966 22.8667 28.7638 22.8293 28.6476H22.954L22.9789 28.5895C23.0412 28.4734 22.954 28.3489 22.8667 28.2576C22.8418 28.2161 22.8044 28.1829 22.8044 28.158C22.8044 28.1414 22.8044 28.1165 22.8044 28.0833C22.8169 28.0086 22.8418 27.9173 22.767 27.8178C22.7172 27.7597 22.6548 27.7265 22.5925 27.7099C22.5801 27.7099 22.5676 27.7016 22.5427 27.6933C22.5427 27.6767 22.5302 27.6352 22.4803 27.6186C22.418 27.5771 22.3183 27.5605 22.2061 27.5439C22.1438 27.5439 22.0815 27.5273 22.0441 27.519C22.0067 27.5024 21.9569 27.4858 21.907 27.4609C21.7948 27.4028 21.6577 27.3364 21.4458 27.3364C21.4458 27.3364 21.3336 27.353 21.2963 27.3613C21.2963 27.3613 21.2713 27.3696 21.2589 27.3696C21.2464 27.3696 21.2339 27.3696 21.209 27.3613C21.1592 27.3447 21.0844 27.3281 21.0096 27.3281C20.7478 27.3364 20.6357 27.4111 20.4986 27.4858L20.4362 27.519C20.4362 27.519 20.4113 27.5273 20.3864 27.5356C20.3615 27.5356 20.3116 27.5522 20.2867 27.5771C20.1745 27.6435 20.1745 27.7265 20.162 27.7846C20.162 27.8426 20.1496 27.8592 20.1122 27.8758L20 27.9339L20.0872 28.0003C20.1371 28.0418 20.1496 28.0667 20.1371 28.0584H20.162C20.162 28.0584 20.0748 28.1248 20.0748 28.1912C20.0748 28.2327 20.0997 28.2659 20.1122 28.2908C20.1122 28.3074 20.1371 28.3157 20.1371 28.324C20.1371 28.3489 20.1371 28.3821 20.1371 28.407C20.1496 28.5397 20.162 28.6974 20.2617 28.8053C20.3116 28.8551 20.3739 28.8634 20.4238 28.8717C20.4238 28.8717 20.4238 28.8883 20.4238 28.9049C20.4238 28.9464 20.4487 29.0045 20.536 29.046C20.6107 29.0792 20.698 29.0875 20.7728 29.0792H20.8476C20.8476 29.0792 20.86 29.0875 20.8725 29.0958C20.8974 29.1124 20.9348 29.1373 20.9847 29.1456C21.0345 29.1622 21.0844 29.1787 21.1467 29.1953C21.3835 29.27 21.5705 29.3198 21.6826 29.3281H21.6951C21.7948 29.3281 21.9569 29.2949 22.2186 29.2285C22.2186 29.2285 22.6673 29.0958 22.7172 29.046L22.7545 29.0211Z" fill="#AD863D"/>
<path d="M25.1501 26.2942C25.1501 26.2942 25.2346 26.2773 25.2628 26.2688C25.2628 26.2688 25.2816 26.2688 25.2816 26.2603C25.291 26.2603 25.3098 26.2603 25.3286 26.2688C25.3568 26.2773 25.4038 26.2942 25.4602 26.2858C25.479 26.2858 25.7421 26.1756 25.7703 26.1502C25.7985 26.1247 25.8173 26.0908 25.8455 26.0315C25.8455 26.0146 25.8643 25.9891 25.8737 25.9722C25.8925 25.9722 25.9206 25.9722 25.9488 25.9552C25.9958 25.9213 25.9958 25.862 25.9958 25.7773V25.7095C26.0052 25.6163 25.9958 25.5739 25.9958 25.5315C25.9958 25.5146 25.9958 25.4891 25.9958 25.4552V25.3535C25.9958 25.1756 25.9958 25.023 25.8361 24.8281C25.7985 24.7858 25.5729 24.6163 25.5353 24.5908C25.4978 24.5739 25.4602 24.5654 25.4226 24.5569C25.4132 24.5569 25.4038 24.5569 25.4038 24.5569V24.54C25.4038 24.5146 25.385 24.4807 25.3568 24.4637C25.3098 24.4298 24.8963 24.3281 24.8587 24.3281C24.7835 24.3281 24.7272 24.3705 24.6896 24.4044C24.6896 24.4044 24.6802 24.4129 24.6708 24.4213C24.652 24.4213 24.6144 24.4044 24.5674 24.4129C24.5298 24.4129 24.5016 24.4468 24.4734 24.4637C24.4546 24.4722 24.4452 24.4807 24.4264 24.4807C24.3983 24.4807 24.3607 24.4807 24.3231 24.5061C24.2573 24.5485 24.0036 25.0739 24.0036 25.1247C24.0036 25.1247 23.966 25.7349 24.1351 25.8366C24.1633 25.8535 24.2009 25.862 24.2291 25.8705V26.0739L24.3607 26.04C24.4734 26.0061 24.4922 26.04 24.5392 26.0993C24.558 26.1332 24.5862 26.1756 24.6332 26.201C24.7554 26.2688 25.0091 26.3197 25.1407 26.3281H25.1594L25.1501 26.2942Z" fill="#AD863D"/>
<path d="M29.6036 25.1069C29.6036 25.1069 29.6484 25.1069 29.6664 25.1161C29.7112 25.1346 29.7471 25.1622 29.774 25.1807C29.8547 25.236 29.9444 25.3005 30.0879 25.282C30.1237 25.282 30.1596 25.2636 30.1865 25.2544C30.2224 25.236 30.2493 25.2267 30.2852 25.236C30.2941 25.236 30.3031 25.2452 30.33 25.2636C30.3569 25.282 30.4017 25.3281 30.4555 25.3281H30.4825C30.5811 25.3097 30.6708 25.2175 30.7515 25.1346C30.7784 25.1069 30.8053 25.0793 30.8322 25.0608C30.8501 25.0608 30.886 25.0608 30.9129 25.0332C30.9577 24.9963 30.9577 24.941 30.9488 24.8581V24.7751C30.9667 24.6645 30.9577 24.6184 30.9488 24.5724C30.9488 24.5539 30.9488 24.5263 30.9488 24.4894C30.9488 24.4894 30.9488 24.4618 30.9667 24.4433C30.9847 24.388 31.0205 24.3051 30.9847 24.1945C30.9667 24.1484 30.9398 24.1208 30.9219 24.1115C30.9219 24.0931 30.9129 24.0655 30.9039 24.047C30.9039 24.0194 30.9039 23.9825 30.886 23.9549C30.8412 23.8627 30.6887 23.5493 30.4197 23.4295C30.339 23.3926 30.1148 23.3373 30.0341 23.3281C29.9802 23.3281 29.9085 23.3466 29.8368 23.365C29.783 23.3834 29.7202 23.3926 29.6933 23.3926H29.6753C29.6484 23.3834 29.6126 23.3742 29.5588 23.3742C29.4332 23.3742 29.3973 23.4572 29.3794 23.5217C29.3346 23.5309 29.2897 23.5678 29.2359 23.6323C29.2 23.6507 29.1283 23.6784 29.0924 23.7521C28.9489 24.0009 28.9938 24.1853 29.0835 24.3972L29.0028 24.4894L29.0207 24.5447C29.0655 24.6369 29.1552 24.6553 29.209 24.6553C29.209 24.6553 29.209 24.6553 29.209 24.6645C29.2539 24.7751 29.3346 24.9963 29.496 25.0885C29.5408 25.1069 29.5857 25.1161 29.6215 25.1254L29.6036 25.1069Z" fill="#AD863D"/>
<path d="M31.4561 32.1362C31.5447 32.0857 31.6332 32.0453 31.7091 32.0251L31.7723 32.0049L32 31.2271L31.7597 31.0958C31.785 30.9847 31.747 30.9342 31.6585 30.8736C31.6585 30.8736 31.6332 30.8433 31.6205 30.8231C31.6205 30.8231 31.6205 30.7928 31.6205 30.7726C31.6205 30.7423 31.6205 30.7019 31.5826 30.6615C31.5573 30.6312 31.5067 30.6211 31.4688 30.611C31.4561 30.611 31.4308 30.611 31.4308 30.6009C31.4308 30.5806 31.4182 30.5402 31.3802 30.5099C31.2917 30.4392 31.1526 30.4291 31.0387 30.419C31.0008 30.419 30.9628 30.419 30.9375 30.419C30.8869 30.419 30.849 30.3988 30.7984 30.3887C30.6846 30.3584 30.5581 30.3281 30.4063 30.3281C30.1913 30.3281 30.0268 30.3584 29.8624 30.3988C29.7612 30.419 29.66 30.4493 29.5462 30.4594H29.4956C29.3691 30.5301 29.3438 30.6211 29.3185 30.6817C29.3185 30.7019 29.3059 30.7322 29.2932 30.7423C29.2932 30.7423 29.2679 30.7625 29.2553 30.7625C29.23 30.7827 29.192 30.8029 29.1667 30.8332C29.1161 30.9039 29.1161 30.9645 29.1161 31.015V31.0655C29.1161 31.0655 29.1035 31.0857 29.0908 31.0857C29.0655 31.1059 29.015 31.1362 29.0023 31.1867C28.977 31.2675 29.1667 31.6817 29.23 31.7423C29.2553 31.7625 29.3059 31.7827 29.3312 31.7928C29.3565 31.7928 29.3944 31.813 29.3944 31.8231C29.3944 31.8231 29.4071 31.8534 29.4197 31.8736C29.4197 31.9039 29.445 31.9443 29.4829 31.9645C29.5209 31.9847 29.5715 31.9948 29.6221 31.9948C29.6474 31.9948 29.6727 31.9948 29.6853 31.9948C29.7359 32.015 29.7739 32.0453 29.8118 32.0655C29.8877 32.1059 29.9636 32.1564 30.1027 32.2069C30.1154 32.2069 30.1533 32.2271 30.166 32.2473C30.2166 32.2776 30.2545 32.3079 30.3177 32.318C30.381 32.318 30.4316 32.318 30.4695 32.2978C30.4822 32.2978 30.5075 32.2877 30.5075 32.2978C30.5328 32.3079 30.5834 32.3281 30.6466 32.3281C30.7099 32.3281 30.7478 32.3079 30.7984 32.2978C30.8237 32.2978 30.8363 32.2776 30.8616 32.2877C30.8996 32.2978 30.9628 32.318 31.0387 32.3079C31.1778 32.2877 31.3296 32.2069 31.4814 32.1362H31.4561Z" fill="#AD863D"/>
<path d="M21 30.4405C21 30.3295 20.8478 30.0067 20.7787 29.926C20.7095 29.8554 20.6127 29.8151 20.5435 29.7949C20.5297 29.7949 20.5159 29.7848 20.5159 29.7747C20.5159 29.7444 20.4882 29.694 20.419 29.6537C20.3499 29.6133 20.2669 29.5931 20.1977 29.5831H20.1701C20.1701 29.5528 20.1424 29.4923 20.0732 29.462C19.9902 29.4217 19.6306 29.341 19.5614 29.341C19.5061 29.341 19.4646 29.341 19.4093 29.3611C19.4093 29.3611 19.3816 29.3611 19.3678 29.351C19.3263 29.341 19.271 29.3208 19.188 29.3309C19.1188 29.3309 19.0635 29.3611 19.022 29.3914C18.9943 29.4116 18.9528 29.4317 18.9252 29.4317C18.8975 29.4317 18.8698 29.4317 18.856 29.4116C18.8145 29.4015 18.773 29.3914 18.7315 29.3914C18.607 29.3914 18.4134 29.5124 18.3304 29.6133C18.3166 29.6335 18.3027 29.6637 18.2889 29.6738C18.1506 29.6738 18.0676 29.7545 18.0261 29.8958C18.0122 29.9664 17.9569 30.5716 18.0676 30.6926L18.0952 30.7229H18.1367C18.2336 30.7532 18.3166 30.8238 18.3857 30.8944C18.4549 30.9549 18.524 31.0154 18.607 31.0457C18.7039 31.0961 19.2433 31.2373 19.4093 31.2373C19.4508 31.2373 19.4785 31.2273 19.5061 31.2172C19.5476 31.2575 19.6029 31.308 19.6998 31.3281H19.7274C19.8934 31.3281 20.502 31.1768 20.585 31.1466C20.6819 31.0961 20.9447 30.8641 20.9862 30.7834C21.0138 30.7128 20.9862 30.6523 20.9585 30.6119C20.9585 30.6119 20.9447 30.5918 20.9585 30.5716C20.9723 30.5514 21 30.5111 21 30.4707V30.4405Z" fill="#AD863D"/>
<path d="M23.7414 31.8413C23.7414 31.8413 23.6121 31.7484 23.5948 31.738C23.5948 31.738 23.5776 31.7071 23.569 31.6864C23.5517 31.6348 23.5172 31.5625 23.4483 31.5419C23.3879 31.5212 23.3448 31.5419 23.3103 31.5625C23.2845 31.5522 23.25 31.5212 23.2069 31.4902C23.0948 31.418 23.0172 31.3663 22.9741 31.356C22.819 31.2941 22.4741 31.3354 22.3362 31.4799C22.3362 31.4799 22.2931 31.5315 22.2845 31.5625C22.2672 31.6038 22.2672 31.6141 22.2328 31.6245H22.1897L22 32.1304L22.0517 32.182C22.0517 32.182 22.0948 32.3163 22.1034 32.3989C22.1121 32.5021 22.1293 32.595 22.181 32.6673C22.1983 32.688 22.2241 32.6983 22.25 32.7189C22.2672 32.7189 22.2931 32.7396 22.3017 32.7499C22.3276 32.7809 22.3448 32.8635 22.3534 32.8945C22.3621 32.9358 22.3707 32.9564 22.3966 32.9874C22.4138 33.008 22.4397 33.0184 22.5 33.0287C22.5603 33.039 22.6724 33.0597 22.7069 33.101C22.7241 33.1526 22.75 33.2455 22.8879 33.2662C22.9569 33.2868 23.0086 33.2662 23.0517 33.2455C23.0776 33.2765 23.1207 33.3178 23.181 33.3281H23.2241C23.3103 33.3281 23.4828 33.3281 23.5086 33.3178C23.5517 33.3075 23.5776 33.2662 23.5948 33.2455L23.6121 33.2249H23.6638C23.6638 33.2249 23.75 33.2249 23.7845 33.1939C23.8103 33.1732 23.8103 33.1423 23.8276 33.101C23.8276 33.0803 23.8362 33.0493 23.8448 33.0287C23.9224 32.8738 24 32.657 24 32.4195C24 32.3885 23.9224 31.9858 23.8879 31.9342C23.8707 31.9136 23.8534 31.9032 23.7759 31.8413H23.7414Z" fill="#AD863D"/>
<path d="M31.009 26.9526V26.9977C31.0449 27.0879 31.0629 27.1781 31.0719 27.2796C31.0988 27.4713 31.1347 27.6968 31.2784 27.8546C31.3233 27.911 31.3682 27.9335 31.4132 27.9561C31.4401 27.9673 31.467 27.9786 31.485 28.0012C31.5209 28.035 31.5479 28.0575 31.5658 28.0801C31.6287 28.1477 31.6736 28.1928 31.8173 28.2492C31.9431 28.2943 32.1586 28.3281 32.2754 28.3281H32.3562C32.437 28.3281 32.5089 28.3281 32.5808 28.3281H32.6706L32.6885 28.2492C32.7155 28.159 32.7694 28.0801 32.8143 27.9899C32.94 27.7757 33.0837 27.5164 32.94 27.2007C32.8861 27.0767 32.6526 26.6595 32.5448 26.5693C32.5089 26.5355 32.0868 26.3438 32.0508 26.3325C32.0149 26.3325 31.979 26.3325 31.9341 26.3551C31.8982 26.3664 31.8532 26.3776 31.8263 26.3776C31.7814 26.3664 31.7544 26.3664 31.7185 26.3551C31.6646 26.3325 31.6107 26.3213 31.5479 26.3325C31.5119 26.3325 31.2605 26.4791 31.2335 26.5129C31.2156 26.5355 31 26.8624 31 26.9639L31.009 26.9526Z" fill="#AD863D"/>
</svg>
