<svg width="72" height="72" viewBox="0 0 72 72" fill="none" xmlns="http://www.w3.org/2000/svg">
<path d="M64.9267 25.0999C64.8337 24.087 63.3322 20.0014 62.427 19.5498C61.2554 18.9589 59.8046 19.9085 58.8107 21.0228C58.6668 20.8033 58.4004 19.9676 58.2312 19.4443C58.0705 18.9462 57.9351 18.52 57.8421 18.3427C57.3726 17.431 56.4082 16.3885 55.3254 16.1184C54.729 15.9707 54.175 16.0678 53.6759 16.4139L53.6505 16.4308L52.5 19.5202L49.4758 15.1308C48.8625 14.1347 47.5556 13.8182 46.697 14.0967C45.9441 14.3415 45.5507 14.9662 45.6142 15.8145C45.7791 17.9375 46.9084 19.9128 47.9997 21.8247C49.0571 23.6733 50.1483 25.5853 50.2964 27.569C50.3091 27.7251 50.2541 27.8771 50.1949 28.0417C50.1399 28.1978 50.0807 28.3582 50.0765 28.5355C49.645 28.4173 49.4547 28.0248 49.2348 27.5732C49.0783 27.2524 48.9175 26.9148 48.6468 26.6616C46.0583 24.1925 42.1459 24.0574 39.3459 24.758C38.5295 24.9606 38.2504 25.2308 37.9289 25.5473C37.7682 25.7077 37.599 25.8681 37.3368 26.0453C37.1549 26.1677 36.9857 26.2268 36.8038 26.2901C36.5458 26.383 36.2751 26.4801 35.996 26.7671C35.4884 27.2904 34.892 28.181 34.6848 28.9238C34.3676 28.755 34.1518 28.4342 33.9446 28.1219C33.805 27.9151 33.6781 27.7251 33.5216 27.5732C32.7138 26.7924 29.7234 25.6824 28.5772 25.5304C27.3083 25.3658 25.0623 25.6528 23.7596 26.0242C23.4085 26.1255 21.3868 27.4044 21.0907 27.6829C20.8242 27.9362 20.4393 28.5313 20.0967 29.0546C19.9318 29.3121 19.7753 29.5527 19.6526 29.7215C19.0224 30.5994 18.997 30.7766 18.9124 31.3675C18.8828 31.5659 18.849 31.8107 18.7771 32.161C18.7559 32.2665 18.701 32.5451 18.5952 32.6084C18.4514 32.123 18.3711 31.7094 18.4133 31.1987C18.5868 29.0673 19.2804 27.168 19.9572 25.3363C20.8073 23.0276 21.6829 20.6387 21.4756 17.8151C21.4629 17.6716 21.2345 16.1564 21.1541 16.0424C20.4478 14.9831 18.4895 15.9243 17.8635 16.3379C16.8272 17.0216 15.0423 18.4735 14.5813 20.6261C14.4586 20.5543 14.3402 20.415 14.226 20.28C14.0737 20.1027 13.9299 19.9339 13.7523 19.879C12.9656 19.6426 11.9843 20.6007 11.6797 21.1832C11.5359 21.4575 11.1426 22.6182 11.1045 22.8799C11.0115 23.513 11.0537 24.2516 11.0918 24.9649C11.1214 25.4798 11.1468 26.0073 11.1299 26.4927L10.4532 25.3194C10.3601 25.121 10.2924 24.8804 10.2205 24.6314C10.0725 24.1123 9.91597 23.5763 9.50993 23.3526C9.28153 23.2302 9.0066 23.2175 8.664 23.3188C8.46944 23.3779 8.35524 23.5847 8.24104 23.7915C8.16913 23.9224 8.093 24.0574 8.00418 24.1461C7.87729 24.2684 7.75885 24.3444 7.65734 24.4162C7.3655 24.6145 7.15402 24.7623 7.05674 25.522C6.76912 27.8096 7.62353 32.6717 8.52444 35.0437C8.78245 35.7232 9.20539 36.4028 9.61567 37.057C9.88637 37.4875 10.1401 37.8968 10.3516 38.302C12.809 43.0545 15.0085 48.5624 16.7046 54.2222C16.8399 54.6696 16.9456 55.1972 17.0429 55.7037C17.2036 56.5056 17.3644 57.3329 17.6605 57.9448C17.7239 58.0715 18.1342 58.7679 18.2526 58.8481C18.3922 58.9451 18.6375 59 18.8997 59C19.162 59 19.4158 58.9493 19.5976 58.8312C19.7837 58.713 19.8641 58.5442 19.8303 58.3458L19.8176 58.3078C19.4834 57.776 19.2973 57.1471 19.1281 56.5985L18.7686 55.404C16.7849 48.8283 14.9154 42.6155 11.3329 36.7868C9.97096 34.571 8.43561 29.1053 8.67247 26.3366C8.68939 26.1382 8.72746 25.6739 8.92203 25.5431C8.96855 25.5135 9.02352 25.5009 9.08273 25.5093C9.13349 26.0242 9.37882 26.5898 9.57338 27.0498L9.59029 27.0878C10.6731 29.6202 11.2948 31.3127 11.9124 34.0688C11.9293 34.1447 11.9208 34.2713 11.9124 34.3768C11.8997 34.5626 11.8912 34.7103 11.9716 34.7905C12.0054 34.8243 12.8302 35.2547 12.936 35.259C13.1474 35.259 13.7311 34.972 13.8453 34.8116C14.0568 34.5119 13.8242 33.9928 13.6042 33.4863C13.5154 33.2837 13.4308 33.0896 13.3927 32.946C12.7964 30.6922 12.8598 28.3245 12.9233 26.0369C12.9359 25.5937 12.9486 25.1548 12.9529 24.7243C12.9571 24.4246 12.9529 24.1207 12.9486 23.8211C12.9444 23.5298 12.9402 23.2344 12.9444 22.939C13.1051 23.0234 13.1263 23.188 13.1474 23.4496V23.4961C13.194 24.0237 13.2447 24.5681 13.2955 25.1168C13.4731 27.0287 13.655 29.0082 13.5577 30.7893C13.545 31.0088 13.4943 31.1945 13.4435 31.3718C13.3293 31.7727 13.2236 32.1568 13.6761 32.7688C13.8834 33.0516 14.1879 33.1993 14.5136 33.1993C14.8181 33.1951 15.0973 33.0389 15.2749 32.7815C15.4187 32.5662 15.4314 31.6335 15.4018 30.0929C15.3976 29.865 15.3934 29.6793 15.3934 29.5653C15.3934 29.1602 15.3934 28.7508 15.3891 28.3371C15.3722 26.2859 15.3595 24.1672 15.8333 22.1455C16.0067 21.4069 16.5185 19.9381 16.8949 19.4105C17.1867 19.0011 18.9547 17.2073 19.568 17.1609C19.6103 17.1609 19.6357 17.1609 19.6484 17.1736C20.0544 18.8365 19.9022 20.7991 19.1916 23.0149C19.0013 23.6058 18.7136 24.2347 18.4345 24.8467C18.168 25.4291 17.8931 26.0327 17.707 26.5982C16.9287 28.9576 16.768 31.3127 17.2375 33.4146C17.4363 34.2924 18.2949 34.8158 19.0013 34.8158C19.0182 34.8158 19.0393 34.8158 19.0562 34.8158C19.7034 34.7905 20.1475 34.3515 20.2532 33.6425C20.3167 33.212 20.304 32.7393 20.2955 32.2328C20.2871 31.7263 20.2744 31.1987 20.3463 30.7344C21.8816 29.0842 23.5989 27.455 26.1578 27.1554C27.0334 27.0498 27.4352 27.1722 27.9892 27.3368C28.1669 27.3917 28.3615 27.4466 28.5899 27.5057L28.9536 27.5943C30.5313 27.9784 32.1639 28.3793 33.0141 29.8608C33.5978 30.8737 33.9023 31.9795 33.8388 32.8363C32.9168 33.2711 31.7621 32.638 30.9711 32.1146C30.5989 31.8698 30.2056 31.49 29.8249 31.1228C29.3258 30.6416 28.814 30.1436 28.3022 29.8988C27.6932 29.6075 27.046 29.4978 26.3185 29.5653C25.4853 29.6455 23.84 30.5276 23.4086 31.2494C23.0406 31.8614 22.6684 33.5032 22.6641 34.2376C22.6641 35.5586 23.7046 37.1709 24.0218 37.6352C24.3306 38.0826 25.3838 39.3065 25.8364 39.5429C26.8346 40.0662 28.1035 40.3786 29.3258 40.6782C30.5144 40.9695 31.7409 41.2691 32.7476 41.7672C32.9591 41.8727 33.953 42.6324 34.0757 42.8012C34.283 43.084 34.4945 44.2194 34.3803 44.4177C34.1307 44.8482 33.4201 44.8609 32.8914 44.7385C32.2189 44.5823 31.7579 44.2658 31.3095 43.9535C31.0304 43.7593 30.7385 43.5609 30.4001 43.4006C30.1464 43.2824 29.8461 43.2022 29.5584 43.1262C29.3174 43.0629 29.072 42.9954 28.8563 42.9067C28.7252 42.8561 28.6152 42.7717 28.4968 42.683C28.3065 42.5438 28.095 42.3834 27.7693 42.3369C25.5699 42.0288 23.6412 43.3457 23.0829 45.5446L23.0744 45.57L23.0829 45.5953C23.2224 46.0933 23.3239 46.6251 23.4212 47.1358C23.5143 47.6212 23.6116 48.1234 23.7385 48.6004C23.878 49.1195 24.0684 49.6429 24.2545 50.1493C24.4913 50.7993 24.7366 51.4704 24.8678 52.1288C24.9058 52.3103 24.9016 52.496 24.8974 52.6817C24.8931 52.8927 24.8889 53.0953 24.9439 53.2811C25.0454 53.644 25.3711 53.931 25.811 54.045C26.3059 54.1716 26.8219 54.0534 27.1349 53.7453L27.1687 53.7115V53.6651C27.1602 53.5596 27.1645 53.4499 27.1687 53.3401C27.1687 53.1249 27.1772 52.9012 27.1264 52.6775C26.953 51.9135 26.6231 51.0821 26.3016 50.2844C25.8871 49.2461 25.4557 48.1699 25.3415 47.178C25.24 46.3086 25.2061 45.1015 26.0859 44.6541C26.6907 44.346 27.2575 44.6625 27.8074 44.9664C28.0146 45.0804 28.2261 45.1985 28.4333 45.2787C29.3258 45.6248 29.7995 45.8274 30.6666 46.2748L30.7724 46.3297C31.779 46.8488 32.3881 47.1654 33.6654 46.9965C34.2111 46.9248 34.9893 46.5154 35.6195 46.1862C35.996 45.9878 36.3893 45.781 36.4993 45.781C36.6685 45.781 36.8927 45.9118 37.1295 46.0511C37.3833 46.1988 37.6455 46.3508 37.9078 46.3888C38.6733 46.5027 39.5869 46.4056 40.3483 46.1355C41.245 45.819 41.8117 45.3336 42.4123 44.8145C42.7423 44.5317 43.0849 44.2362 43.4909 43.9661C43.8885 43.7044 45.5169 42.7886 45.8553 42.7421C46.2571 42.6873 46.5616 42.7632 46.7942 42.9743C47.416 43.5483 47.3314 45.0002 47.2764 45.9625L47.2637 46.1862C47.1707 47.9377 47.2468 48.6215 47.4329 50.2717L47.4541 50.4575C47.4752 50.6389 47.4625 50.8415 47.4541 51.0399C47.4372 51.3227 47.4202 51.6139 47.4921 51.8587C47.6148 52.2681 48.0801 52.6226 48.5496 52.6648C48.9218 52.6986 49.2263 52.534 49.3913 52.209C49.6239 51.7447 49.5097 51.3818 49.4082 51.061C49.3616 50.9091 49.3151 50.7698 49.3067 50.622C49.2432 49.6175 49.2855 48.5413 49.3278 47.4988C49.3786 46.2368 49.4293 44.9284 49.294 43.7424C49.1544 42.5184 48.6722 41.5013 47.9743 40.9568C47.4837 40.5727 46.9042 40.425 46.2444 40.5094C44.726 40.7036 43.3979 41.8474 42.2262 42.8519C41.8033 43.2148 41.4015 43.5609 41.0039 43.8564C40.2172 44.4388 39.1936 44.8904 38.6733 44.5865C38.3773 44.4135 38.2673 44.0041 38.3434 43.3626C38.4026 42.8899 38.5718 42.6788 38.7664 42.434C38.851 42.3285 38.9398 42.2188 39.0286 42.0795C39.0963 41.974 39.1174 41.8558 39.1428 41.7376C39.164 41.6363 39.1851 41.5393 39.2274 41.4759C39.312 41.3535 39.6969 41.113 40.0057 40.9188C40.2975 40.7331 40.5767 40.5601 40.6993 40.4377C41.4649 39.6653 41.7694 39.4669 42.37 39.0786C42.5561 38.9562 42.7676 38.8212 43.0341 38.6397C44.6456 37.5466 46.8238 35.8456 47.1241 33.7438C47.2806 32.6591 46.9127 31.5744 46.0329 30.515C44.5779 28.755 42.4208 28.4004 40.5386 29.6118C40.0057 29.9536 39.6208 30.5023 39.2486 31.0299C38.6818 31.8318 38.1488 32.5915 37.138 32.7561C35.8352 31.777 35.8648 30.8864 36.3978 29.4978C36.7361 28.6157 37.4763 28.0797 38.2588 27.5141C38.5845 27.2777 38.9271 27.033 39.2274 26.7586C41.6679 26.3112 44.4341 25.8132 46.7985 27.7209C47.0946 27.9573 47.4752 28.4173 47.8728 28.8985C48.5876 29.7595 49.3278 30.6543 49.9284 30.7598C50.3937 30.84 51.0704 30.6247 51.6499 30.2069C52.1617 29.8397 52.4873 29.3881 52.5466 28.9702C52.7792 27.3537 52.5085 26.02 51.6118 24.3613C51.1973 23.5974 50.7109 22.8461 50.2456 22.1202C49.5477 21.0439 48.8287 19.9296 48.3211 18.731C47.932 17.8193 47.564 16.9541 47.6698 15.9834C48.0716 15.9454 48.2704 16.1859 48.5242 16.4898L48.6003 16.5785C50.4656 18.7901 52.0728 22.0695 53.5236 26.6025C53.5532 26.6995 53.5574 26.8135 53.5574 26.9359C53.5574 27.0667 53.5574 27.2018 53.604 27.3326C53.8662 28.1641 54.5726 28.506 55.7019 28.3414L55.7569 28.3329L55.7822 28.2823C56.2179 27.4339 55.9176 26.7924 55.5961 26.1129C55.465 25.8343 55.3297 25.5473 55.2408 25.235C54.9744 24.3064 54.2638 21.6728 54.1792 20.6303C54.1454 20.1955 54.4245 19.6722 54.691 19.1657C54.9025 18.769 55.1224 18.3554 55.1901 17.9797C55.3635 17.9882 55.7865 18.4102 55.9134 18.5875C56.7889 19.8115 57.4656 23.3146 57.7913 24.9986L57.8167 25.1337C57.8632 25.37 57.8801 25.6697 57.9013 25.9905C57.9563 26.8852 58.0197 27.9024 58.6922 28.2401C59.0941 28.4427 59.4832 28.4426 59.7835 28.2358C60.1388 27.991 60.3291 27.4761 60.2699 26.9275C60.2572 26.8008 60.2149 26.6869 60.1684 26.5645C60.1176 26.4252 60.0669 26.2859 60.0584 26.1213C59.9696 24.433 59.8427 22.1244 61.5049 21.2718C61.8137 21.3647 62.7104 23.4792 62.8669 24.1545C63.7044 27.8011 61.9744 32.1273 60.4433 35.9427C59.8554 37.4115 59.2971 38.8001 58.891 40.1085C58.1847 42.3918 57.9055 44.5106 57.6094 46.756C57.491 47.6761 57.3641 48.6215 57.2076 49.588C57.1484 49.9468 57.0342 50.3393 56.9242 50.7234C56.8058 51.1328 56.6916 51.521 56.6408 51.8714C56.6239 51.998 57.0596 52.7999 57.0638 52.8041C57.1315 52.8759 57.2372 52.9181 57.3853 52.9181C57.7321 52.9265 58.2101 52.745 58.4215 52.5298C58.8191 52.1288 58.7599 51.7954 58.6965 51.4366C58.6626 51.2552 58.6288 51.0652 58.6542 50.8457C58.9714 47.6718 59.7835 43.7213 60.7182 40.7753C61.137 39.4543 61.6699 38.091 62.2367 36.6475C63.7382 32.8026 65.2947 28.831 64.9521 25.0788L64.9267 25.0999ZM35.9833 42.1681C35.9537 42.1217 35.924 42.0795 35.8902 42.0373L35.7549 41.8727C35.1204 41.1088 34.4648 40.3195 33.5343 39.8679C32.7899 39.5049 31.7282 39.2517 30.6032 38.9773C28.6195 38.5004 26.3693 37.9559 25.6207 36.7066C25.3965 36.3352 24.7916 34.7905 24.7493 34.3726C24.669 33.5538 25.5403 31.7474 26.3735 31.6334C26.4962 31.6334 27.5113 31.8445 27.6128 31.8909C27.7651 31.9669 28.0527 32.2919 28.3065 32.5789C28.5264 32.8279 28.7379 33.0642 28.9029 33.1993C29.9645 34.0688 31.1234 34.4739 32.3542 34.9044L32.6546 35.0099H32.6842C33.7627 34.7736 34.7186 34.533 35.4842 33.8915C35.628 33.9548 35.7676 34.0223 35.9029 34.0856C36.8419 34.5246 37.654 34.9002 38.7452 34.1954C39.0117 34.0223 39.7899 33.423 40.0141 33.2078C40.289 32.9419 40.5048 32.6126 40.7078 32.2919C41.1223 31.6419 41.5199 31.0299 42.425 30.8273C43.0933 30.6796 43.6051 30.7809 44.1338 31.1734C45.0178 31.8318 45.1235 32.6759 45.0093 33.8239C44.9036 34.9002 44.2142 35.432 43.4824 36.0018C43.106 36.293 42.7211 36.5927 42.387 36.9768L42.2516 37.0612C40.0395 38.4118 37.9501 39.6822 36.5881 41.974C36.5416 42.0542 36.457 42.1259 36.3724 42.2019C36.3174 42.2483 36.2667 42.2947 36.2201 42.3454C36.1144 42.3665 36.0679 42.3116 35.9748 42.1681H35.9833Z" fill="#AD863D"/>
</svg>
